<?xml version="1.0" standalone="yes"?>
<svg xmlns="http://www.w3.org/2000/svg" width="670" height="259">
<path style="fill:#f0f4f5; stroke:none;" d="M0 0L0 259C15.9061 250.534 30.6065 238.126 47 230.84C51.9153 228.656 56.1904 232.222 61 230.377C77.0708 224.213 93.5419 212.616 108 203.308C124.077 192.958 139.881 182.227 156 171.946C161.851 168.214 169.106 160.799 175.91 159.212C182.093 157.771 187.886 168.075 194 168.918C205.001 170.435 216.787 159.118 228 158.894C235.212 158.749 241.756 165.59 249 162.772C264.239 156.844 284.348 146.981 296.985 136.621C310.432 125.599 317.219 112.987 334 106L329 117C340.014 112.658 345.865 99.7531 350 89L346 90C353.936 81.385 361.037 76.2532 372 72L372 73C361.514 78.0316 350.949 97.5852 346 108C360.495 101.964 372.905 88.8661 384 78L381 91C387.401 86.0595 394.539 75.7071 397 68L418 78L414.59 56.0903L421.387 45.8156L426 24C417.484 18.9352 415.674 9.95482 412 1C417.947 6.94659 425.302 12.7339 429.648 20C441.786 40.2908 448.712 67.7708 474 75L470 71L472 63L490.285 79.4699L503.79 87.4992L513 102L515 100L524 122L525 122L525 116L524 116L523 118C520.943 112.381 517.345 109.012 520 103L517 103L517 106C516.195 103.024 516.927 102.207 520 102L518 98L528 95L528 94L521 95L527 89L525 93L527 87L531 88L536 87L536 82L535 82L532 87L531 82L534 82L537 77L536 80L539 80L539 76L537 77L537 76L542 70L541 73C544.034 73 543.683 76.8784 541 75L540 79L541 79L543 79L544 76L551 94L553 93L552 96C555.329 96.4326 555.189 98.9966 555 102L553 98L552 98L554 104L555 104L556 101L557 101L557 108L558 108L557 103L558 103L560 112L562 111L561 114L563 113L563 114L561 118L564 121L565 121L566 119L568 128L571 132L574 131L573 133L586 139L579 136L587 141L587 142L589 142L587 143L587 144L593 145L592 143L593 143L594 148L596 147L595 150C598.232 150 597.278 153.355 597 156L598 156L598 154L599 154L600 164L602 163L602 164L600 167L601 168L609 170C610.003 173.345 610.072 176.276 614 176L613 180L614 180L614 178L615 178L614 183L617 183L623 209L618 205L622 207L616 205L617 202C610.717 199.481 605.374 194.835 602 189L597 193C605.359 192.299 613.113 203.711 618.576 209.13C634.897 225.321 651.011 245.016 670 258L670 0L0 0z"/>
<path style="fill:#6a9397; stroke:none;" d="M412.333 1.66666L412.667 2.33334L412.333 1.66666z"/>
<path style="fill:#6b8364; stroke:none;" d="M413 2L413 4L415 4L413 2z"/>
<path style="fill:#6a9397; stroke:none;" d="M413 4L413 5L416 5L416 6L414 7L419 13C417.805 17.1978 418.032 20.7616 423 21L427 24C423.364 28.9973 424.544 34.2184 425 40L424 40L424 36L423 36L424 43C420.205 43.5919 414.196 53.9438 414 58L415 58L415 54L416 54L415 64L416 64L416 62L417 62L416 70L417 70L417 68L418 68L417 76L418 76L418 74L419 74L418 78L416 78C413.597 72.9087 410.544 71.1507 405 72L405 71L407 71L407 70L402 71L403 69L400 70C398.462 67.2953 395.608 69.3792 398 71L398 72L394 73L395 76C390.952 76.7324 389.853 78.9826 390 83L387 83L387 84L389 83L389 84L385 86L385 87L387 86L387 87L381 91L380 86L380 85L383 84L381 81L384 78L380 85C374.225 83.9361 370.7 88.9993 369 94L367 92L361 102L359 100L358 100L356 105L353 104L354 106L353 106C349.829 105.619 347.511 106.668 347 110L346 110L348 102C352.687 99.6198 356.005 95.3492 356 90C360.327 89.1007 361.244 85.078 361 81L363 82L362 79C364.847 78.6806 365.08 77.8522 365 75L369 73L368 73L363 75L365 77L359 77L361 78L361 79L357 78L357 81C352.854 81.1783 351.178 82.8539 351 87L346 90L349 90L349 87L350 87L349 95L346 98L344 98L345 100L343 105L342 110L341 110L340 108L335 117L334 117L329 117L334 106L329 110L326 109L327 111L324 110L325 112L324 112C316.076 111.726 302.344 126.164 303 134C297.801 134.207 282.084 142.784 281 148L278 147L279 149L276 148L277 150L276 150C267.196 149.934 255.559 158.588 248 163L266 171.116L324 176L329 175L329 174L327 174L327 173C332.778 174.025 342.644 174.124 344 167L347 168L348 165L351 163L358 161C353.866 165.146 348.701 168.785 351 175L348 173L349 177L345 180L349 179L348 181L352 180C356.593 185.466 373.043 186.701 380 187L380 189L351 194L352 198C343.347 195.3 330.283 196.014 322 200L328 205L327 201L328 201L329 203L333 201L333 202L331 202L331 203L334 202L336 199C336.273 204.292 343.361 211.588 348 214C344.52 214.57 340.872 212.93 340 217C336.482 214.867 330.496 213.363 327 216L324 214L297 217L299 208L303 207L303 206L299 207L299 206L309 203C309 198.448 318.078 201.368 321 202C317.784 197.039 311.471 199.545 306.514 200.142C295.568 201.461 281.771 203.564 271 201L272 203L271 203L237 205.06L227 208L224 208L225 206L179 210L179 211L192 211L192 212L187 213L187 214C238.118 224.686 289.424 235.273 341 244.25C353.013 246.341 364.969 248.749 377 250.753C381.288 251.467 387.798 253.665 391 250C402.189 251.886 416.936 247.608 428 245.4C435.392 243.924 443.94 244.786 451.039 242.735C469.573 237.383 489.848 227.671 507 219L507 218L376 218L376 217L412 213L412 212L400 211L400 210L413 211L432 208L432 209L414 210L414 211L451 210L451 211L448 211L448 212L491 210C483.682 203.212 468.682 195.441 459 193L459 192L462 192L454 185L472 187L469 184C468.822 176.458 459.171 164.517 454 159L483 172.111L546 195.707L574 201L574 202L572 202L572 203L582 199L581 196L602 189C604.891 195.054 610.342 200.357 617 202L616 205L622 207L618 205L623 209L617 188L618 188L618 191L619 191L617 183L616 183L615 185L615 179L610 176C610.318 170.235 606.928 165.49 601 168L600 167L602 163L600 164L600 163L599 155L598 155L598 157L597 157L598 152L595 153L595 145L587 144L587 143L589 142L579 136L583 139C580.398 134.31 576.913 134.434 572 135L572 130L566 127L564 118L561 118L563 113L557 105L558 108L557 108L556 103L552 98L555 100L550 89L547 80L544 81L544 77L543 77L542 79L542 77L541 77L541 79L540 79L541 75L543 77L543 73C539.75 74.6579 538.61 76.3694 539 80C534.678 80.1635 532.112 82.6509 532 87L535 82L536 82L536 87L531 86L530 86L525 93L527 89L526 89L522 95L528 94L528 95C522.857 95.5457 519.522 96.1459 520 102C516.947 102.133 515.522 103.009 517 106L517 103L520 103C516.204 108.706 520.144 112.634 523 118L524 116L525 116L525 122L524 122C522.671 117.801 520.578 111.951 516 111L517 108L513 105L516 102L516 101C512.732 101.545 511.324 101.703 512 99L510 100L511 97L509 99L508 99L509 93C505.969 93 505.928 90.7225 506 88L504 86L498 84L496 86L493 84L490 79L493 83L483 76L482 75L483 73L480 69L476 70C477.513 67.0432 476.479 66.0589 474 64L475 66L473 64L472 64L470 71L473 77L470 76L472 74L464 73L465 71L462 72L463 70L462 70L458 68L460 69L460 68L457 68L456 63L455 63L456 65L455 65L453 59L448 55L450 56L450 55L447 55L446 50L443 51L441 47L441 46L442 43L441 45L440 45L441 41C438.307 40.6399 438.62 39.5595 439 37L437 33L435 29C432.307 28.6399 432.62 27.5595 433 25L431 26L432 23L428 23L431 22L431 21L430 19L428 20L428 19L425 16L424 15L425 13L417 8L416 7L417 5L413 4z"/>
<path style="fill:#6b8364; stroke:none;" d="M414.667 5.33333L415.333 5.66667L414.667 5.33333M416 6L418 8L418 6L416 6M415 7L416 8L415 7M418 8L416 9L417 12L418 12L418 8M420 9L420 11L422 11L420 9M419 11L419 12L424 14L424 13L419 11M422 11L423 12L422 11M418 13L419 14L418 13M424 14L426 16L426 14L424 14M419 15L420 16L419 15M426 16L428 18L426 16M419.667 17.3333L420.333 17.6667L419.667 17.3333M424 17L422 20L423 21L424 21L425 20L424 17M428.333 18.6667L428.667 19.3333L428.333 18.6667M419.667 19.3333L420.333 19.6667L419.667 19.3333z"/>
<path style="fill:#6a9397; stroke:none;" d="M423 19L424 20L423 19z"/>
<path style="fill:#6b8364; stroke:none;" d="M427 20L428 21L427 20M429 20L430 21L429 20M422 21L423 22L422 21M425 22L426 23L425 22M428 22L429 24L430 24L431 22L428 22M427 23L428 24L427 23M426 24L427 25L426 24M431.333 24.6667L431.667 25.3333L431.333 24.6667M432 26L433 30L434 30L432 26z"/>
<path style="fill:#6a9397; stroke:none;" d="M433 27L434 28L433 27z"/>
<path style="fill:#6b8364; stroke:none;" d="M425.333 30.6667L425.667 31.3333L425.333 30.6667M434 30L436 33L434 30M432 31L433 32L432 31M432 33L433 34L432 33M436 34L437 35L436 34M424 35L424 40L425 40L424 35M435.333 35.6667L435.667 36.3333L435.333 35.6667M437 35L437 38L438 38L437 35M433 38L434 39L433 38M438 38L439 42L440 42L438 38M423 40L423 43L424 43L423 40z"/>
<path style="fill:#6a9397; stroke:none;" d="M382 42L383 43L382 42z"/>
<path style="fill:#6b8364; stroke:none;" d="M440 42L440 45L441 45L440 42M423 45L424 46L423 45M441.667 46.3333L442.333 46.6667L441.667 46.3333M422 47L423 48L422 47M443 47L445 51L443 47M420 50L420 51L423 51L420 50M418 51L419 52L418 51M443 52L443 53L446 54L446 51L443 52M441 52L442 53L441 52M446 52L447 53L446 52M416 53L418 55L416 53M422 53L423 54L422 53M447.333 53.6667L447.667 54.3333L447.333 53.6667M415 54L415 59L416 59L415 54M444 55L445 56L444 55M448 55L452 60L448 55z"/>
<path style="fill:#6a9397; stroke:none;" d="M370 58L371 59L370 58z"/>
<path style="fill:#6b8364; stroke:none;" d="M452 60L456 65L452 60M416 62L416 66L417 66L416 62M450 62L451 63L450 62z"/>
<path style="fill:#958a5b; stroke:none;" d="M472.667 63.3333L473.333 63.6667L472.667 63.3333z"/>
<path style="fill:#6a9397; stroke:none;" d="M470 64L471 65L470 64z"/>
<path style="fill:#6b8364; stroke:none;" d="M473 64L473 66L475 66L473 64M456 65L457 66L456 65M457.333 66.6667L457.667 67.3333L457.333 66.6667M475 66L475 68L477 68L475 66M473 67L472 71L473 72L477 72L477 71L473 67M417 68L417 72L418 72L417 68M458 68L458 70L460 70L458 68M476 70L479 68L476 70M398.333 69.6667L398.667 70.3333L398.333 69.6667M400 69L401 70L400 69z"/>
<path style="fill:#958a5b; stroke:none;" d="M268 70L268 72L270 72L268 70z"/>
<path style="fill:#6b8364; stroke:none;" d="M402.667 70.3333L403.333 70.6667L402.667 70.3333M460 70L461 71L460 70z"/>
<path style="fill:#6a9397; stroke:none;" d="M473 70L474 71L473 70z"/>
<path style="fill:#6b8364; stroke:none;" d="M479 70L483 73L479 70z"/>
<path style="fill:#958a5b; stroke:none;" d="M541 70L537 77C539.772 75.1517 541.694 73.4608 541 70z"/>
<path style="fill:#6b8364; stroke:none;" d="M396.667 71.3333L397.333 71.6667L396.667 71.3333M405 71L405 72L408 72L405 71M462.667 71.3333L463.333 71.6667L462.667 71.3333z"/>
<path style="fill:#958a5b; stroke:none;" d="M266.333 72.6667L266.667 73.3333L266.333 72.6667M362 72L363 73L362 72z"/>
<path style="fill:#6a9397; stroke:none;" d="M370 72L370 74L372 72L370 72z"/>
<path style="fill:#6b8364; stroke:none;" d="M408 72L408 73L411 73L411 72L408 72M464.667 72.3333L465.333 72.6667L464.667 72.3333z"/>
<path style="fill:#958a5b; stroke:none;" d="M542 72L543 73L542 72z"/>
<path style="fill:#6b8364; stroke:none;" d="M369 73L370 74L369 73z"/>
<path style="fill:#6a9397; stroke:none;" d="M373 73L374 74L373 73z"/>
<path style="fill:#6b8364; stroke:none;" d="M398 73L399 74L398 73M466 73L466 74L470 75L470 74L466 73M474 73L477 75L477 74L474 73M483 73L482 74L482 75L483 76L484 76L485 75L485 74L483 73z"/>
<path style="fill:#958a5b; stroke:none;" d="M264 74L265 75L264 74M272 75L272 76L277 78L274 74L272 75z"/>
<path style="fill:#6b8364; stroke:none;" d="M367 74L368 75L367 74z"/>
<path style="fill:#6a9397; stroke:none;" d="M371 74L372 75L371 74z"/>
<path style="fill:#6b8364; stroke:none;" d="M394.333 74.6667L394.667 75.3333L394.333 74.6667M410 75L410 76L415 77L410 75M418 74L418 77L419 77L418 74M365.667 75.3333L366.333 75.6667L365.667 75.3333M470 75L470 76L473 77L470 75M479 75L479 80L480 80L481 78L479 75M485 75L486 76L485 75M362 76L363 78L364 78L365 76L362 76M393 76L391 82L392 82L394 80L393 76M466 76L467 77L466 76M474 76L475 77L474 76M481 76L482 77L481 76M486 76L487 77L486 76z"/>
<path style="fill:#958a5b; stroke:none;" d="M544 76L545 81L546 81L544 76M261 77L260 79L261 77z"/>
<path style="fill:#6b8364; stroke:none;" d="M361 77L362 78L361 77M471 77L472 78L471 77M485 77L486 78L485 77M487 77L493 83L487 77z"/>
<path style="fill:#6a9397; stroke:none;" d="M488 77L489 78L488 77z"/>
<path style="fill:#958a5b; stroke:none;" d="M536 77L533 81L536 77z"/>
<path style="fill:#6a9397; stroke:none;" d="M275 78L276 79L275 78z"/>
<path style="fill:#6b8364; stroke:none;" d="M358 78L358 79L361 79L358 78M414 79L414 80L417 80L414 79M419.333 78.6667L419.667 79.3333L419.333 78.6667M477 78L478 79L477 78M483 78L484 79L483 78M357 79L358 80L357 79M362.333 79.6667L362.667 80.3333L362.333 79.6667M396 79L397 80L396 79z"/>
<path style="fill:#f0f4f5; stroke:none;" d="M544.333 79.6667L544.667 80.3333L544.333 79.6667z"/>
<path style="fill:#958a5b; stroke:none;" d="M258 80L259 81L258 80M280 80L283 83L280 80z"/>
<path style="fill:#6b8364; stroke:none;" d="M355.667 80.3333L356.333 80.6667L355.667 80.3333M382 80L381 82L383 82L382 80M439 80L441 82L439 80M444 80L445 81L444 80z"/>
<path style="fill:#6a9397; stroke:none;" d="M258 81L259 82L258 81z"/>
<path style="fill:#6b8364; stroke:none;" d="M354 81L351 85L354 81M361.333 81.6667L361.667 82.3333L361.333 81.6667M389.333 81.6667L389.667 82.3333L389.333 81.6667z"/>
<path style="fill:#958a5b; stroke:none;" d="M532 81L531 84L534 82L532 81M256 82L257 83L256 82z"/>
<path style="fill:#6b8364; stroke:none;" d="M356 82L355 84L356 82M379 85L381 82L379 85M442 82L439 86L442 82M488 82L489 83L488 82z"/>
<path style="fill:#958a5b; stroke:none;" d="M547 82L550 94L551 94L547 82z"/>
<path style="fill:#6b8364; stroke:none;" d="M358 83L359 84L358 83M360 83L361 84L360 83M381 83L380 86L381 83M388 83L387 85L389 85L388 83M444 83L445 84L444 83M493 83L493 84L498 85L493 83z"/>
<path style="fill:#f0f4f5; stroke:none;" d="M545.333 83.6667L545.667 84.3333L545.333 83.6667z"/>
<path style="fill:#958a5b; stroke:none;" d="M284 85L284 86L286 88L290 89L286 84L284 85z"/>
<path style="fill:#6b8364; stroke:none;" d="M377 84L378 85L377 84M446 84L447 85L446 84M492 84L493 85L492 84z"/>
<path style="fill:#6a9397; stroke:none;" d="M530 84L529 86L530 84z"/>
<path style="fill:#958a5b; stroke:none;" d="M252 86L252 87L255 87L252 86z"/>
<path style="fill:#6a9397; stroke:none;" d="M280 85L281 86L280 85z"/>
<path style="fill:#6b8364; stroke:none;" d="M350.333 85.6667L350.667 86.3333L350.333 85.6667M356 85L357 86L356 85M359 85L358 88L359 88L359 85M375 86L379 89L377 92L377 95L380 89L376 86L381 88L375 86M390 85L391 86L390 85z"/>
<path style="fill:#f0f4f5; stroke:none;" d="M441.333 85.6667L441.667 86.3333L441.333 85.6667z"/>
<path style="fill:#6b8364; stroke:none;" d="M443 85L444 86L443 85M489 85L490 86L489 85M499.667 85.3333L500.333 85.6667L499.667 85.3333z"/>
<path style="fill:#f0f4f5; stroke:none;" d="M546 85L547 86L546 85z"/>
<path style="fill:#6b8364; stroke:none;" d="M354 86L355 87L354 86M386 86L385 88L387 88L386 86M434 86L435 87L434 86M447 86L448 87L447 86M491.667 86.3333L492.333 86.6667L491.667 86.3333M498 86L499 87L498 86M501.667 86.3333L502.333 86.6667L501.667 86.3333z"/>
<path style="fill:#958a5b; stroke:none;" d="M528 86L529 87L528 86z"/>
<path style="fill:#6a9397; stroke:none;" d="M534 86L535 87L534 86z"/>
<path style="fill:#6b8364; stroke:none;" d="M349 87L348 89L350 89L349 87M351 87L352 88L351 87M388 87L389 88L388 87M437 87L436 89L437 87z"/>
<path style="fill:#f0f4f5; stroke:none;" d="M319 140L319 141L356 144L356 143L350 140L352 134L395 133L395 132L368 127C377.943 119.819 392.412 117.957 404 114.341C408.959 112.794 415.758 109.585 420.985 109.833C425.022 110.024 426.322 113.652 427 117C431.442 113.69 440.056 101.886 436 97L436 96L445 91L445 90L440 90L441 87L415.274 99.5324L398 111.663L346 123.84L319 140z"/>
<path style="fill:#6b8364; stroke:none;" d="M500 87L501 88L500 87M503 87L505 89L505 87L503 87z"/>
<path style="fill:#958a5b; stroke:none;" d="M527.333 87.6667L527.667 88.3333L527.333 87.6667z"/>
<path style="fill:#f0f4f5; stroke:none;" d="M545 87L546 88L545 87M547 87L548 88L547 87z"/>
<path style="fill:#958a5b; stroke:none;" d="M250.333 88.6667L250.667 89.3333L250.333 88.6667z"/>
<path style="fill:#6b8364; stroke:none;" d="M356 88L358 90L356 88M373 88L371 94L372 94L373 88z"/>
<path style="fill:#6a9397; stroke:none;" d="M437 88L438 89L437 88z"/>
<path style="fill:#6b8364; stroke:none;" d="M441 88L442 89L441 88M444 88L445 89L444 88z"/>
<path style="fill:#f0f4f5; stroke:none;" d="M548 88L549 89L548 88z"/>
<path style="fill:#6b8364; stroke:none;" d="M347 89L348 90L347 89M353.333 89.6667L353.667 90.3333L353.333 89.6667M447 89L448 90L447 89M505 89L507 92L505 89z"/>
<path style="fill:#f0f4f5; stroke:none;" d="M546 89L547 94L548 94L546 89z"/>
<path style="fill:#958a5b; stroke:none;" d="M248 90L247 92L248 90M291 90L293 92L291 90z"/>
<path style="fill:#6b8364; stroke:none;" d="M356.333 90.6667L356.667 91.3333L356.333 90.6667M374 90L375 91L374 90M383 90L384 91L383 90M432 92L435 91L432 92M446 90L447 91L446 90z"/>
<path style="fill:#958a5b; stroke:none;" d="M525 90L526 91L525 90z"/>
<path style="fill:#f0f4f5; stroke:none;" d="M549.333 90.6667L549.667 91.3333L549.333 90.6667z"/>
<path style="fill:#6a9397; stroke:none;" d="M339 91L340 92L339 91z"/>
<path style="fill:#6b8364; stroke:none;" d="M350 91L351 92L350 91M369 91L370 92L369 91z"/>
<path style="fill:#6a9397; stroke:none;" d="M433.667 91.3333L434.333 91.6667L433.667 91.3333M443 91L442 93L443 91z"/>
<path style="fill:#6b8364; stroke:none;" d="M444.667 91.3333L445.333 91.6667L444.667 91.3333z"/>
<path style="fill:#958a5b; stroke:none;" d="M524 91L525 92L524 91M245 92L247 94L245 92z"/>
<path style="fill:#6b8364; stroke:none;" d="M355 92L354 94L355 92M368.333 92.6667L368.667 93.3333L368.333 92.6667z"/>
<path style="fill:#f0f4f5; stroke:none;" d="M381 92L382 93L381 92z"/>
<path style="fill:#6b8364; stroke:none;" d="M426 92L427 93L426 92M443 92L444 93L443 92M446 92L447 93L446 92M507.333 92.6667L507.667 93.3333L507.333 92.6667z"/>
<path style="fill:#958a5b; stroke:none;" d="M523 92L524 93L523 92z"/>
<path style="fill:#f0f4f5; stroke:none;" d="M544.333 92.6667L544.667 93.3333L544.333 92.6667z"/>
<path style="fill:#6a9397; stroke:none;" d="M551 92L552 93L551 92z"/>
<path style="fill:#958a5b; stroke:none;" d="M243 93L244 94L243 93M295 93L296 94L295 93z"/>
<path style="fill:#6b8364; stroke:none;" d="M348.333 93.6667L348.667 94.3333L348.333 93.6667M350 93L351 94L350 93z"/>
<path style="fill:#6a9397; stroke:none;" d="M379 93L380 94L379 93z"/>
<path style="fill:#f0f4f5; stroke:none;" d="M380 93L381 94L380 93z"/>
<path style="fill:#6b8364; stroke:none;" d="M428.667 93.3333L429.333 93.6667L428.667 93.3333z"/>
<path style="fill:#6a9397; stroke:none;" d="M440 93L436 97L439 98L438 95L441 96L440 93z"/>
<path style="fill:#6b8364; stroke:none;" d="M441.667 93.3333L442.333 93.6667L441.667 93.3333z"/>
<path style="fill:#958a5b; stroke:none;" d="M522 93L523 94L522 93M552 93L551 95L553 95L552 93M241 94L242 95L241 94M302 94L302 95L307 96L307 95L302 94z"/>
<path style="fill:#6b8364; stroke:none;" d="M362 99L368 94L362 99z"/>
<path style="fill:#f0f4f5; stroke:none;" d="M369 94L370 95L369 94M379 94L380 95L379 94z"/>
<path style="fill:#6b8364; stroke:none;" d="M425.667 94.3333L426.333 94.6667L425.667 94.3333M440 94L441 95L440 94M506 94L507 95L506 94M508 94L508 99L509 99L508 94z"/>
<path style="fill:#958a5b; stroke:none;" d="M521 94L522 95L521 94M239 95L240 96L239 95z"/>
<path style="fill:#6b8364; stroke:none;" d="M347 95L346 99L347 99L347 95M350 95L351 96L350 95M353 95L350 97L350 98L353 95z"/>
<path style="fill:#6a9397; stroke:none;" d="M367 95L365 98L367 95z"/>
<path style="fill:#f0f4f5; stroke:none;" d="M368 95L362 101C365.462 100.284 368.543 98.9407 368 95z"/>
<path style="fill:#6b8364; stroke:none;" d="M370.333 95.6667L370.667 96.3333L370.333 95.6667M375 95L376 96L375 95M380 95L381 96L380 95M422.667 95.3333L423.333 95.6667L422.667 95.3333M438.667 95.3333L439.333 95.6667L438.667 95.3333z"/>
<path style="fill:#f0f4f5; stroke:none;" d="M441 95L440 99L441 95z"/>
<path style="fill:#6b8364; stroke:none;" d="M443 95L444 96L443 95z"/>
<path style="fill:#6a9397; stroke:none;" d="M509 95L510 96L509 95z"/>
<path style="fill:#958a5b; stroke:none;" d="M520 95L521 96L520 95z"/>
<path style="fill:#f0f4f5; stroke:none;" d="M545 95L546 96L545 95M548 95L549 96L548 95z"/>
<path style="fill:#958a5b; stroke:none;" d="M553 95L555 98L553 95M237 96L238 97L237 96z"/>
<path style="fill:#6b8364; stroke:none;" d="M419.667 96.3333L420.333 96.6667L419.667 96.3333M437 96L438 97L437 96M442 96L441 100L442 100L442 96z"/>
<path style="fill:#958a5b; stroke:none;" d="M519 96L518 98L520 98L519 96M235 97L236 98L235 97M313 97L314 101L315 101L316 100L316 99L313 97z"/>
<path style="fill:#6b8364; stroke:none;" d="M345 97L346 98L345 97M416.667 97.3333L417.333 97.6667L416.667 97.3333z"/>
<path style="fill:#6a9397; stroke:none;" d="M441 97L442 98L441 97M312 98L313 99L312 98z"/>
<path style="fill:#f0f4f5; stroke:none;" d="M313 98L314 99L313 98z"/>
<path style="fill:#6a9397; stroke:none;" d="M363 98L364 99L363 98z"/>
<path style="fill:#6b8364; stroke:none;" d="M369 98L370 99L369 98M413.667 98.3333L414.333 98.6667L413.667 98.3333M438 98L439 99L438 98M510.333 98.6667L510.667 99.3333L510.333 98.6667z"/>
<path style="fill:#958a5b; stroke:none;" d="M517 98L518 99L517 98M226 104L233 100L226 104z"/>
<path style="fill:#f0f4f5; stroke:none;" d="M314 99L315 100L314 99z"/>
<path style="fill:#6b8364; stroke:none;" d="M344 99L345 100L344 99M350 99L349 101L350 99M359 101L362 99L359 101M368 99L369 100L368 99M408 99L409 100L408 99z"/>
<path style="fill:#958a5b; stroke:none;" d="M515 99L516 100L515 99z"/>
<path style="fill:#6a9397; stroke:none;" d="M517 99L518 100L517 99z"/>
<path style="fill:#958a5b; stroke:none;" d="M555 99L554 101L556 101L555 99z"/>
<path style="fill:#6b8364; stroke:none;" d="M347 100L348 101L347 100M378 100L379 101L378 100M439 100L440 101L439 100M511 100L512 101L511 100z"/>
<path style="fill:#958a5b; stroke:none;" d="M514 100L515 101L514 100z"/>
<path style="fill:#6a9397; stroke:none;" d="M516 100L517 101L516 100M518 100L519 101L518 100z"/>
<path style="fill:#6b8364; stroke:none;" d="M344 101L343 104L344 104L344 101M358 101L356 104L358 101z"/>
<path style="fill:#f0f4f5; stroke:none;" d="M360 101L361 102L360 101z"/>
<path style="fill:#6b8364; stroke:none;" d="M365 101L366 102L365 101M367 101L368 102L367 101M411 101L412 102L411 101M440 101L441 102L440 101M442 101L443 102L442 101M504 101L505 102L504 101M510 101L509 104L513 103L513 102L510 101z"/>
<path style="fill:#6a9397; stroke:none;" d="M554 101L555 102L554 101z"/>
<path style="fill:#958a5b; stroke:none;" d="M556 101L555 103L557 103L556 101M231 102L232 103L231 102z"/>
<path style="fill:#6a9397; stroke:none;" d="M239 102L240 103L239 102z"/>
<path style="fill:#958a5b; stroke:none;" d="M316.667 102.333L317.333 102.667L316.667 102.333M319 102L320 103L319 102z"/>
<path style="fill:#6b8364; stroke:none;" d="M348 102L349 103L348 102M362 102L362 103L365 103L362 102z"/>
<path style="fill:#6a9397; stroke:none;" d="M437 102L436 104L437 102z"/>
<path style="fill:#6b8364; stroke:none;" d="M438 102L439 103L438 102M345 103L346 104L345 103M347 103L348 104L347 103M365 103L366 104L365 103M406 106L406 107L412 104L406 106M437 103L438 104L437 103M513.333 103.667L513.667 104.333L513.333 103.667z"/>
<path style="fill:#f0f4f5; stroke:none;" d="M552 103L552 106L553 106L552 103z"/>
<path style="fill:#958a5b; stroke:none;" d="M557 103L557 105L559 105L557 103M320 104L323 107L320 104z"/>
<path style="fill:#6b8364; stroke:none;" d="M342 104L343 105L342 104M354.667 104.333L355.333 104.667L354.667 104.333z"/>
<path style="fill:#6a9397; stroke:none;" d="M411 104L412 105L411 104z"/>
<path style="fill:#6b8364; stroke:none;" d="M436.333 104.667L436.667 105.333L436.333 104.667M352.667 105.333L353.333 105.667L352.667 105.333M357 105L358 106L357 105z"/>
<path style="fill:#6a9397; stroke:none;" d="M409.667 105.333L410.333 105.667L409.667 105.333z"/>
<path style="fill:#f0f4f5; stroke:none;" d="M554 105L555 110L556 110L554 105z"/>
<path style="fill:#958a5b; stroke:none;" d="M223 106L219 112L220 112L223 106z"/>
<path style="fill:#6b8364; stroke:none;" d="M345 106L344 108L345 106M403 106L404 107L403 106z"/>
<path style="fill:#6a9397; stroke:none;" d="M407.667 106.333L408.333 106.667L407.667 106.333z"/>
<path style="fill:#6b8364; stroke:none;" d="M435 106L436 107L435 106M514 106L515 107L514 106z"/>
<path style="fill:#f0f4f5; stroke:none;" d="M519 106L520 107L519 106z"/>
<path style="fill:#6a9397; stroke:none;" d="M320 107L321 108L320 107z"/>
<path style="fill:#6b8364; stroke:none;" d="M332.333 107.667L332.667 108.333L332.333 107.667M341 107L341 110L342 110L341 107M348 107L349 108L348 107M351 107L351 110L352 110L351 107M404 107L405 108L404 107M434 107L435 108L434 107M515 107L516 108L515 107M330 108L331 109L330 108M346.333 108.667L346.667 109.333L346.333 108.667M349 108L350 109L349 108M402 108L403 109L402 108z"/>
<path style="fill:#f0f4f5; stroke:none;" d="M552 108L553 112L554 112L552 108z"/>
<path style="fill:#6a9397; stroke:none;" d="M321 109L322 110L321 109z"/>
<path style="fill:#6b8364; stroke:none;" d="M327.667 109.333L328.333 109.667L327.667 109.333M400 109L401 110L400 109M436 109L437 110L436 109M516.333 109.667L516.667 110.333L516.333 109.667z"/>
<path style="fill:#958a5b; stroke:none;" d="M560.333 109.667L560.667 110.333L560.333 109.667z"/>
<path style="fill:#6a9397; stroke:none;" d="M222 110L223 111L222 110z"/>
<path style="fill:#6b8364; stroke:none;" d="M325.667 110.333L326.333 110.667L325.667 110.333M332 110L333 111L332 110M345 110L346 111L345 110M347 110L348 111L347 110M354 110L355 111L354 110M397 110L398 111L397 110M419.667 110.333L420.333 110.667L419.667 110.333M422 110L422 111L427 115L422 110z"/>
<path style="fill:#6a9397; stroke:none;" d="M424 110L425 111L424 110z"/>
<path style="fill:#6b8364; stroke:none;" d="M433.667 110.333L434.333 110.667L433.667 110.333z"/>
<path style="fill:#958a5b; stroke:none;" d="M521 110L522 111L521 110z"/>
<path style="fill:#6b8364; stroke:none;" d="M323.667 111.333L324.333 111.667L323.667 111.333M327 111L328 112L327 111M395 111L396 112L395 111M416.667 111.333L417.333 111.667L416.667 111.333z"/>
<path style="fill:#6a9397; stroke:none;" d="M425.333 111.667L425.667 112.333L425.333 111.667z"/>
<path style="fill:#6b8364; stroke:none;" d="M514 111L515 112L514 111M517.333 111.667L517.667 112.333L517.333 111.667z"/>
<path style="fill:#f0f4f5; stroke:none;" d="M556 111L556 112L559 112L556 111z"/>
<path style="fill:#958a5b; stroke:none;" d="M561.333 111.667L561.667 112.333L561.333 111.667z"/>
<path style="fill:#6b8364; stroke:none;" d="M322 112L323 113L322 112M330 112L329 115L330 112M340 112L336 116L340 112M343 112L344 113L343 112M390 112L390 113L395 113L390 112M413.667 112.333L414.333 112.667L413.667 112.333z"/>
<path style="fill:#f0f4f5; stroke:none;" d="M522 112L524 115L522 112M525 112L525 124L528 124L528 112L525 112z"/>
<path style="fill:#958a5b; stroke:none;" d="M218 113L216 114L216 115L218 113z"/>
<path style="fill:#6b8364; stroke:none;" d="M376 113L377 114L376 113M384 113L385 114L384 113M387.667 113.333L388.333 113.667L387.667 113.333M411.667 113.333L412.333 113.667L411.667 113.333z"/>
<path style="fill:#6a9397; stroke:none;" d="M426 113L427 114L426 113M223 114L224 115L223 114M312 114L313 115L312 114z"/>
<path style="fill:#6b8364; stroke:none;" d="M319 114L320 115L319 114M341 114L342 115L341 114M381.667 114.333L382.333 114.667L381.667 114.333M406 114L406 115L409 115L406 114z"/>
<path style="fill:#6a9397; stroke:none;" d="M430 114L428 117L430 114z"/>
<path style="fill:#6b8364; stroke:none;" d="M431 114L432 115L431 114M317 115L314 119L317 115M334.333 115.667L334.667 116.333L334.333 115.667M374.667 115.333L375.333 115.667L374.667 115.333M377 115L377 116L380 116L377 115M402 115L402 116L405 116L402 115M430 115L431 116L430 115M518 115L520 117L520 115L518 115z"/>
<path style="fill:#6a9397; stroke:none;" d="M563 115L562 118L563 118L563 115z"/>
<path style="fill:#958a5b; stroke:none;" d="M214 116L213 119L214 119L214 116z"/>
<path style="fill:#6b8364; stroke:none;" d="M371 116L371 117L374 117L371 116M398 116L398 117L401 117L398 116M429 116L430 117L429 116M330 117L330 120L331 120L330 117M368.667 117.333L369.333 117.667L368.667 117.333M395 117L396 118L395 117M428 117L429 118L428 117M430.333 117.667L430.667 118.333L430.333 117.667M520.333 117.667L520.667 118.333L520.333 117.667z"/>
<path style="fill:#958a5b; stroke:none;" d="M564 117L565 118L564 117z"/>
<path style="fill:#6b8364; stroke:none;" d="M318 118L319 119L318 118M332 118L333 119L332 118M343 118L344 119L343 118M362 118L362 119L365 119L362 118M391 118L392 119L391 118M394 118L395 119L394 118M403 118L404 119L403 118M425 118L425 119L428 119L428 118L425 118z"/>
<path style="fill:#f0f4f5; stroke:none;" d="M426 118L427 119L426 118z"/>
<path style="fill:#6b8364; stroke:none;" d="M360 119L361 120L360 119M387.667 119.333L388.333 119.667L387.667 119.333M429 119L430 120L429 119M521 119L522 120L521 119z"/>
<path style="fill:#958a5b; stroke:none;" d="M565.333 119.667L565.667 120.333L565.333 119.667M211 120L212 121L211 120z"/>
<path style="fill:#6b8364; stroke:none;" d="M312 120L313 121L312 120M354 120L354 121L357 121L354 120M384.667 120.333L385.333 120.667L384.667 120.333M522.333 120.667L522.667 121.333L522.333 120.667z"/>
<path style="fill:#f0f4f5; stroke:none;" d="M562 120L561 128L562 128L562 120z"/>
<path style="fill:#6b8364; stroke:none;" d="M352 121L353 122L352 121z"/>
<path style="fill:#6a9397; stroke:none;" d="M380 121L383 123L380 121z"/>
<path style="fill:#6b8364; stroke:none;" d="M382 121L383 122L382 121z"/>
<path style="fill:#958a5b; stroke:none;" d="M566.333 121.667L566.667 122.333L566.333 121.667M210 122L211 123L210 122z"/>
<path style="fill:#6b8364; stroke:none;" d="M311 122L306 130L307 130L311 122M341 122L342 123L341 122M343 123L343 124L348 123L343 123z"/>
<path style="fill:#6a9397; stroke:none;" d="M378 122L379 123L378 122z"/>
<path style="fill:#6b8364; stroke:none;" d="M379.667 122.333L380.333 122.667L379.667 122.333M383 122L384 123L383 122M523.333 122.667L523.667 123.333L523.333 122.667z"/>
<path style="fill:#f0f4f5; stroke:none;" d="M560 122L560 125L561 125L560 122z"/>
<path style="fill:#6a9397; stroke:none;" d="M344 123L344 124L347 124L344 123z"/>
<path style="fill:#6b8364; stroke:none;" d="M378 123L379 124L378 123M381.667 123.333L382.333 123.667L381.667 123.333z"/>
<path style="fill:#f0f4f5; stroke:none;" d="M565.333 123.667L565.667 124.333L565.333 123.667z"/>
<path style="fill:#958a5b; stroke:none;" d="M567 123L567 128L568 128L567 123M208 124L209 125L208 124z"/>
<path style="fill:#6b8364; stroke:none;" d="M341 124L342 125L341 124M376 124L377 125L376 124M524 124L525 125L524 124M311 125L312 126L311 125M340 125L335 130L340 125z"/>
<path style="fill:#6a9397; stroke:none;" d="M369 125L368 127L369 125z"/>
<path style="fill:#6b8364; stroke:none;" d="M369 126L373 128L372 125L369 126M383 125L384 126L383 125M522.333 125.667L522.667 126.333L522.333 125.667z"/>
<path style="fill:#f0f4f5; stroke:none;" d="M526 125L527 126L526 125M566.333 125.667L566.667 126.333L566.333 125.667z"/>
<path style="fill:#958a5b; stroke:none;" d="M206 126L205 128L206 126z"/>
<path style="fill:#6a9397; stroke:none;" d="M340 126L341 127L340 126z"/>
<path style="fill:#6b8364; stroke:none;" d="M525 126L525 129L526 129L525 126M310 127L311 128L310 127z"/>
<path style="fill:#6a9397; stroke:none;" d="M339 127L340 128L339 127M370.667 127.333L371.333 127.667L370.667 127.333z"/>
<path style="fill:#f0f4f5; stroke:none;" d="M527 127L530 134L531 134L531 129L527 127z"/>
<path style="fill:#958a5b; stroke:none;" d="M569.333 127.667L569.667 128.333L569.333 127.667z"/>
<path style="fill:#6a9397; stroke:none;" d="M299 128L298 130L299 128M336 130L339 128L336 130z"/>
<path style="fill:#6b8364; stroke:none;" d="M375 128L376 129L375 128z"/>
<path style="fill:#f0f4f5; stroke:none;" d="M532 128L533 129L532 128M535 128L536 129L535 128z"/>
<path style="fill:#6b8364; stroke:none;" d="M378 129L378 130L386 132L386 131L378 129M394 129L395 130L394 129M404 129L405 130L404 129M407 129L408 130L407 129M520 129L521 130L520 129z"/>
<path style="fill:#f0f4f5; stroke:none;" d="M533.333 129.667L533.667 130.333L533.333 129.667M568 129L568 133L572 134L572 133L568 129z"/>
<path style="fill:#958a5b; stroke:none;" d="M570 129L571 130L570 129M203 130L201 133L203 130M297 130L298 131L297 130z"/>
<path style="fill:#6b8364; stroke:none;" d="M304 130L303 132L304 130M333 130L329 132L329 133L334 131L333 130z"/>
<path style="fill:#6a9397; stroke:none;" d="M379.667 130.333L380.333 130.667L379.667 130.333z"/>
<path style="fill:#6b8364; stroke:none;" d="M399.667 130.333L400.333 130.667L399.667 130.333M527 130L529 136L530 136L527 130z"/>
<path style="fill:#6a9397; stroke:none;" d="M528.333 130.667L528.667 131.333L528.333 130.667M333 131L334 132L333 131M382 131L383 132L382 131z"/>
<path style="fill:#6b8364; stroke:none;" d="M387 131L387 132L391 132L387 131M392 131L392 132L398 132L392 131z"/>
<path style="fill:#f0f4f5; stroke:none;" d="M390 136L390 137L408 132L390 136M534.333 131.667L534.667 132.333L534.333 131.667z"/>
<path style="fill:#958a5b; stroke:none;" d="M572 131L572 133L574 131L572 131z"/>
<path style="fill:#6a9397; stroke:none;" d="M205 132L206 133L205 132M298 132L299 133L298 132z"/>
<path style="fill:#6b8364; stroke:none;" d="M301 132L301 134L303 134L303 132L301 132M324 132L325 133L324 132z"/>
<path style="fill:#6a9397; stroke:none;" d="M331 132L332 133L331 132z"/>
<path style="fill:#6b8364; stroke:none;" d="M399 132L400 133L399 132z"/>
<path style="fill:#6a9397; stroke:none;" d="M406 132L407 133L406 132z"/>
<path style="fill:#6b8364; stroke:none;" d="M407 132L408 133L407 132z"/>
<path style="fill:#6a9397; stroke:none;" d="M529.333 132.667L529.667 133.333L529.333 132.667z"/>
<path style="fill:#958a5b; stroke:none;" d="M573 133L573 134L577 134L573 133z"/>
<path style="fill:#6b8364; stroke:none;" d="M327 133L328 134L327 133M394 133L394 134L398 134L394 133M406 133L407 134L406 133z"/>
<path style="fill:#f0f4f5; stroke:none;" d="M533 133L531 136L533 139C535.56 137.005 534.912 135.391 533 133M535 133L536 134L535 133z"/>
<path style="fill:#958a5b; stroke:none;" d="M199 134L197 135L197 136L199 134z"/>
<path style="fill:#6b8364; stroke:none;" d="M300 134L297 139L298 139L300 134M326 134L327 135L326 134M390 134L390 135L393 135L390 134z"/>
<path style="fill:#6a9397; stroke:none;" d="M396.667 134.333L397.333 134.667L396.667 134.333z"/>
<path style="fill:#f0f4f5; stroke:none;" d="M572 134L572 135L576 135L572 134z"/>
<path style="fill:#6b8364; stroke:none;" d="M322 138L326 136L322 138M354 135L354 136L358 136L354 135M359 135L359 136L364 136L359 135M386 135L385 137L387 137L386 135M402.667 135.333L403.333 135.667L402.667 135.333z"/>
<path style="fill:#6a9397; stroke:none;" d="M533 135L535 137L533 135z"/>
<path style="fill:#f0f4f5; stroke:none;" d="M568 135L568 136L571 136L568 135M577 135L576 137L577 135z"/>
<path style="fill:#958a5b; stroke:none;" d="M580 135L581 136L580 135M195 136L194 138L195 136z"/>
<path style="fill:#6a9397; stroke:none;" d="M325 136L326 137L325 136z"/>
<path style="fill:#6b8364; stroke:none;" d="M352 136L353 137L352 136M371 136L371 137L384 137L371 136z"/>
<path style="fill:#6a9397; stroke:none;" d="M398.667 136.333L399.333 136.667L398.667 136.333z"/>
<path style="fill:#6b8364; stroke:none;" d="M400 136L401 137L400 136M530 136L531 137L530 136z"/>
<path style="fill:#6a9397; stroke:none;" d="M293 137L294 138L293 137M323 137L324 138L323 137z"/>
<path style="fill:#6b8364; stroke:none;" d="M353 137L354 138L353 137M356 137L357 138L356 137M359 137L360 138L359 137M389 137L392 139L389 137M397 139L400 137L397 139M529 137L530 138L529 137z"/>
<path style="fill:#958a5b; stroke:none;" d="M583 137L586 139L583 137z"/>
<path style="fill:#6b8364; stroke:none;" d="M315 138L316 139L315 138M351 138L356 143L351 138M394 138L395 139L394 138z"/>
<path style="fill:#f0f4f5; stroke:none;" d="M577 138L582 143L577 138z"/>
<path style="fill:#958a5b; stroke:none;" d="M191 139L192 140L191 139z"/>
<path style="fill:#6b8364; stroke:none;" d="M295 139L296 140L295 139M318.667 139.333L319.333 139.667L318.667 139.333z"/>
<path style="fill:#6a9397; stroke:none;" d="M350 139L351 140L350 139z"/>
<path style="fill:#6b8364; stroke:none;" d="M355 139L356 140L355 139M393 139L394 140L393 139M532 139L533 140L532 139z"/>
<path style="fill:#958a5b; stroke:none;" d="M586 139L586 141L588 141L588 139L586 139M186.667 140.333L187.333 140.667L186.667 140.333z"/>
<path style="fill:#6b8364; stroke:none;" d="M306 140L307 141L306 140M317 140L318 141L317 140M324 140L324 141L328 141L324 140z"/>
<path style="fill:#6a9397; stroke:none;" d="M351.667 140.333L352.333 140.667L351.667 140.333z"/>
<path style="fill:#6b8364; stroke:none;" d="M357.333 140.667L357.667 141.333L357.333 140.667M391 140L393 142L391 140M396 140L394 141L394 142L396 140z"/>
<path style="fill:#f0f4f5; stroke:none;" d="M534 140L536 142L536 140L534 140z"/>
<path style="fill:#6a9397; stroke:none;" d="M588 140L589 141L588 140z"/>
<path style="fill:#958a5b; stroke:none;" d="M184 141L185 142L184 141z"/>
<path style="fill:#6a9397; stroke:none;" d="M191 141L192 142L191 141z"/>
<path style="fill:#6b8364; stroke:none;" d="M312 141L313 142L312 141M315 141L316 142L315 141M320 141L320 142L323 142L320 141M328 141L329 142L328 141M330 141L330 142L336 142L330 141z"/>
<path style="fill:#6a9397; stroke:none;" d="M353 141L354 142L353 141z"/>
<path style="fill:#6b8364; stroke:none;" d="M399 141L400 142L399 141M531 141L532 142L531 141M533 141L534 142L533 141z"/>
<path style="fill:#f0f4f5; stroke:none;" d="M576.333 141.667L576.667 142.333L576.333 141.667z"/>
<path style="fill:#6a9397; stroke:none;" d="M589 141L589 142L592 143L589 141z"/>
<path style="fill:#958a5b; stroke:none;" d="M182 142L183 143L182 142z"/>
<path style="fill:#6a9397; stroke:none;" d="M189 142L190 143L189 142M195 142L196 143L195 142z"/>
<path style="fill:#958a5b; stroke:none;" d="M286 142L287 143L286 142z"/>
<path style="fill:#6b8364; stroke:none;" d="M291 142L292 143L291 142M295 142L296 143L295 142M304 142L305 143L304 142M308 142L308 143L312 143L308 142M313.667 142.333L314.333 142.667L313.667 142.333M317.667 142.333L318.333 142.667L317.667 142.333M323 142L324 143L323 142M338 142L338 143L341 143L338 142z"/>
<path style="fill:#6a9397; stroke:none;" d="M354 142L355 143L354 142z"/>
<path style="fill:#6b8364; stroke:none;" d="M359 142L360 143L359 142z"/>
<path style="fill:#f0f4f5; stroke:none;" d="M583 142L583 143L586 143L583 142z"/>
<path style="fill:#958a5b; stroke:none;" d="M179.667 143.333L180.333 143.667L179.667 143.333z"/>
<path style="fill:#6b8364; stroke:none;" d="M284 145L284 146L290 144L284 145M305 143L306 144L305 143z"/>
<path style="fill:#f0f4f5; stroke:none;" d="M293 147L293 148L326 146C315.093 140.201 304.096 146.516 293 147z"/>
<path style="fill:#6b8364; stroke:none;" d="M321.667 143.333L322.333 143.667L321.667 143.333M325 143L325 145L327 145L325 143M345 143L345 144L349 144L345 143M357 143L358 144L357 143M534 143L535 144L534 143z"/>
<path style="fill:#958a5b; stroke:none;" d="M592 143L595 145L592 143z"/>
<path style="fill:#6b8364; stroke:none;" d="M302.667 144.333L303.333 144.667L302.667 144.333z"/>
<path style="fill:#f0f4f5; stroke:none;" d="M536 144L536 145L538 147L539 147L536 144M540 144L541 145L540 144M543 144C539.251 150.166 545.66 156.917 552 158L552 157L550 158L550 157L552 152L550 154L549 154L542 147L542 146L543 144z"/>
<path style="fill:#958a5b; stroke:none;" d="M175 145L173 146L173 147L175 145z"/>
<path style="fill:#6b8364; stroke:none;" d="M292 146L292 147L301 146L292 146z"/>
<path style="fill:#6a9397; stroke:none;" d="M296 146L296 147L299 147L296 146M309 146L309 147L312 147L309 146z"/>
<path style="fill:#6b8364; stroke:none;" d="M312 146L312 147L321 148L321 147L312 146z"/>
<path style="fill:#6a9397; stroke:none;" d="M315 146L315 147L321 147L315 146z"/>
<path style="fill:#958a5b; stroke:none;" d="M594 146L595 147L594 146M171 147L172 148L171 147z"/>
<path style="fill:#6b8364; stroke:none;" d="M279.667 147.333L280.333 147.667L279.667 147.333M307 147L307 148L312 148L307 147M323 147L323 148L326 148L323 147M536 147L538 149L536 147z"/>
<path style="fill:#6a9397; stroke:none;" d="M541 147L543 149L541 147z"/>
<path style="fill:#f0f4f5; stroke:none;" d="M592 147L592 153L595 152L592 147z"/>
<path style="fill:#958a5b; stroke:none;" d="M595 147L594 149L596 149L595 147M168 148L169 149L168 148z"/>
<path style="fill:#6a9397; stroke:none;" d="M271 148L272 149L271 148z"/>
<path style="fill:#6b8364; stroke:none;" d="M277.667 148.333L278.333 148.667L277.667 148.333z"/>
<path style="fill:#f0f4f5; stroke:none;" d="M288 148L288 149L292 149L288 148z"/>
<path style="fill:#6b8364; stroke:none;" d="M301 148L301 149L306 149L301 148M327 148L328 149L327 148z"/>
<path style="fill:#958a5b; stroke:none;" d="M166 149L164 150L164 151L166 149z"/>
<path style="fill:#6b8364; stroke:none;" d="M275.667 149.333L276.333 149.667L275.667 149.333M279 149L277 150L277 151L279 149M288 149L288 150L295 150L288 149M296 149L297 150L296 149M539 149L540 150L539 149z"/>
<path style="fill:#958a5b; stroke:none;" d="M596 149L596 153L597 153L596 149z"/>
<path style="fill:#6a9397; stroke:none;" d="M264 150L265 151L264 150z"/>
<path style="fill:#6b8364; stroke:none;" d="M274 150L275 151L274 150M327 150L328 151L327 150M540 150L541 151L540 150z"/>
<path style="fill:#958a5b; stroke:none;" d="M162 151L163 152L162 151z"/>
<path style="fill:#6b8364; stroke:none;" d="M272 151L273 152L272 151z"/>
<path style="fill:#6a9397; stroke:none;" d="M181 152L182 153L181 152z"/>
<path style="fill:#6b8364; stroke:none;" d="M270 152L271 153L270 152M369 152L367 153L367 154L369 152M372.667 152.333L373.333 152.667L372.667 152.333z"/>
<path style="fill:#f0f4f5; stroke:none;" d="M375 152L376 153L375 152z"/>
<path style="fill:#6b8364; stroke:none;" d="M541.333 152.667L541.667 153.333L541.333 152.667z"/>
<path style="fill:#f0f4f5; stroke:none;" d="M595 152L596 153L595 152z"/>
<path style="fill:#958a5b; stroke:none;" d="M158 153L159 154L158 153z"/>
<path style="fill:#6a9397; stroke:none;" d="M183 153L184 154L183 153M228 153L229 154L228 153M263 153L264 154L263 153z"/>
<path style="fill:#6b8364; stroke:none;" d="M268 153L261 157L261 158L265 159L268 153M356.667 153.333L357.333 153.667L356.667 153.333M364.667 153.333L365.333 153.667L364.667 153.333z"/>
<path style="fill:#f0f4f5; stroke:none;" d="M374 153L375 154L374 153z"/>
<path style="fill:#6a9397; stroke:none;" d="M546 153L546 154L551 155L551 154L546 153z"/>
<path style="fill:#958a5b; stroke:none;" d="M156 154L154 155L154 156L156 154z"/>
<path style="fill:#6b8364; stroke:none;" d="M270 154L271 155L270 154M371 154L372 155L371 154z"/>
<path style="fill:#f0f4f5; stroke:none;" d="M373 154L374 155L373 154z"/>
<path style="fill:#6b8364; stroke:none;" d="M544 154L550 160L544 154z"/>
<path style="fill:#6a9397; stroke:none;" d="M545 154L546 155L545 154z"/>
<path style="fill:#f0f4f5; stroke:none;" d="M593.333 154.667L593.667 155.333L593.333 154.667z"/>
<path style="fill:#958a5b; stroke:none;" d="M598 154L599 155L598 154M227 155L228 156L227 155z"/>
<path style="fill:#6a9397; stroke:none;" d="M259 155L260 156L259 155z"/>
<path style="fill:#6b8364; stroke:none;" d="M366 155L367 156L366 155z"/>
<path style="fill:#f0f4f5; stroke:none;" d="M372 155L355 171C361.29 168.385 373.161 163.465 372 155z"/>
<path style="fill:#6b8364; stroke:none;" d="M374 155L375 156L374 155z"/>
<path style="fill:#6a9397; stroke:none;" d="M546 155L547 156L546 155z"/>
<path style="fill:#958a5b; stroke:none;" d="M152 156L151 158L152 156z"/>
<path style="fill:#6a9397; stroke:none;" d="M230 156L231 157L230 156M257 156L258 157L257 156z"/>
<path style="fill:#6b8364; stroke:none;" d="M362 156L363 157L362 156M367 156L366 160L369 157L367 156z"/>
<path style="fill:#6a9397; stroke:none;" d="M547 156L548 157L547 156z"/>
<path style="fill:#958a5b; stroke:none;" d="M597 156L598 157L597 156z"/>
<path style="fill:#6b8364; stroke:none;" d="M266 157L267 158L266 157M360 157L361 158L360 157z"/>
<path style="fill:#f0f4f5; stroke:none;" d="M362 157L361 159L362 157z"/>
<path style="fill:#6b8364; stroke:none;" d="M364 157L365 158L364 157z"/>
<path style="fill:#6a9397; stroke:none;" d="M367 157L368 158L367 157M372 157L373 158L372 157z"/>
<path style="fill:#6b8364; stroke:none;" d="M373 157L374 158L373 157z"/>
<path style="fill:#6a9397; stroke:none;" d="M548 157L549 158L548 157z"/>
<path style="fill:#f0f4f5; stroke:none;" d="M596 157L596 160L597 160L596 157z"/>
<path style="fill:#958a5b; stroke:none;" d="M599 157L602 161L599 157M146.667 158.333L147.333 158.667L146.667 158.333z"/>
<path style="fill:#6a9397; stroke:none;" d="M152 158L153 159L152 158M60 233C79.762 237.668 102.089 218.623 119.075 209.067C125.297 205.566 136.073 202.995 140 197L162.576 198.155L172 199.929L188 192.39L218 192L218 191C209.986 190.995 199.484 190.59 192 187.501C186.545 185.249 183.227 178.634 177 181L180 170L173 170L176 159L179 160C172.809 155.948 156.71 170.849 151 174.424C130.211 187.44 110.445 202.168 89 214.138C80.686 218.779 64.4565 224.422 60 233z"/>
<path style="fill:#958a5b; stroke:none;" d="M178 158L179 159L178 158z"/>
<path style="fill:#6a9397; stroke:none;" d="M227 158L227 159L230 159L227 158z"/>
<path style="fill:#6b8364; stroke:none;" d="M259 158L260 159L259 158M357 158L357 160L359 158L357 158z"/>
<path style="fill:#6a9397; stroke:none;" d="M362 158L363 159L362 158z"/>
<path style="fill:#6b8364; stroke:none;" d="M363 158L364 159L363 158z"/>
<path style="fill:#6a9397; stroke:none;" d="M368 158L369 159L368 158z"/>
<path style="fill:#6b8364; stroke:none;" d="M372 158L373 159L372 158M455 158L454 160L456 160L455 158M544 158L545 159L544 158z"/>
<path style="fill:#6a9397; stroke:none;" d="M549 158L550 159L549 158z"/>
<path style="fill:#f0f4f5; stroke:none;" d="M593.333 158.667L593.667 159.333L593.333 158.667z"/>
<path style="fill:#6b8364; stroke:none;" d="M176 159L177 163L177 164C173.803 164.689 174.254 166.054 175 169L173 168L180 170L177 181C182.722 180.166 186.48 185.01 191 188L188 184L205 186L205 187L195 188L195 189L203 188L202 190L208 189L218 191L218 192C209.982 192 182.116 187.816 180 198L177 197L178 199L177 199L164 200L162 197L163 199L159 198L159 199L161 199L161 200L156 199L157 201L156 201L152 201L152 202L177 211L188 210L188 209L186 209L186 208L191 210L215 206L224 207L224 206L219 206L219 205L272 203L271 201C280.027 203.668 306.098 203.675 313 197L320 203L327 206L327 205L322 200C331.504 196.536 342.284 196.006 352 198L349 196L349 195L375 190L375 189L372 188L375 187L375 186L359 185L352 180L348 181L349 179L348 179C342.267 180.814 339.399 180.353 334 178C332.695 180.61 322.094 178.623 323 175L316 176L316 175L320 175L320 174L270 174L270 173L272 173L272 172L250 168L250 167L252 166L247 164L250 166L250 167L243 163L238 164L240 163L240 162L235 163L235 162L237 162L237 161L226 159C220.931 172.367 208.551 171.914 196 171L197 173L196 173L189 168L193 170L193 169L188 166L189 168L188 168L186 165L186 164L181 165L181 164L183 163L180 160L176 159z"/>
<path style="fill:#4b5737; stroke:none;" d="M177 159L178 160L177 159z"/>
<path style="fill:#6a9397; stroke:none;" d="M209 166L195 169L195 170C207.33 170 222.332 174.606 226 159L209 166z"/>
<path style="fill:#4b5737; stroke:none;" d="M228 159L235 162L235 161L228 159z"/>
<path style="fill:#6b8364; stroke:none;" d="M230 159L231 160L230 159z"/>
<path style="fill:#6a9397; stroke:none;" d="M231 159L232 160L231 159M358 159L359 160L358 159z"/>
<path style="fill:#f0f4f5; stroke:none;" d="M358 161L361 159L358 161z"/>
<path style="fill:#6b8364; stroke:none;" d="M362 159L363 160L362 159z"/>
<path style="fill:#6a9397; stroke:none;" d="M367 159L368 160L367 159z"/>
<path style="fill:#6b8364; stroke:none;" d="M373 159L374 160L373 159z"/>
<path style="fill:#4b5737; stroke:none;" d="M456 159L474 188L456 186L456 187L464 191L462 193L493 210L493 211L444 213L444 212L446 212L446 211L384 216L384 217L467 217L509 216.674L539 205.39L570 203L570 202C543.007 198.365 516.985 186.6 492 176.397C482.753 172.621 470.979 162.931 461 163L456 159z"/>
<path style="fill:#6b8364; stroke:none;" d="M457 159L458 160L457 159z"/>
<path style="fill:#4b5737; stroke:none;" d="M178 160L179 161L178 160z"/>
<path style="fill:#6a9397; stroke:none;" d="M180 160L182 162L180 160z"/>
<path style="fill:#6b8364; stroke:none;" d="M233 160L234 161L233 160z"/>
<path style="fill:#6a9397; stroke:none;" d="M234.667 160.333L235.333 160.667L234.667 160.333z"/>
<path style="fill:#6b8364; stroke:none;" d="M255 160L253 161L253 162L255 160M351 160L353 162L351 160M355 160L356 161L355 160M371 160L372 161L371 160M459 160L460 161L459 160M461 160L461 163L463 162L463 161L461 160M463 160L464 161L463 160z"/>
<path style="fill:#f0f4f5; stroke:none;" d="M552 160L553 161L552 160M554 160L558 165L560 161L554 160z"/>
<path style="fill:#958a5b; stroke:none;" d="M167 161L168 162L167 161z"/>
<path style="fill:#4b5737; stroke:none;" d="M177 161L179 164L175 167L179 167L180 167L181 163L177 161M180 161L181 162L180 161z"/>
<path style="fill:#6a9397; stroke:none;" d="M187 161L188 162L187 161z"/>
<path style="fill:#4b5737; stroke:none;" d="M227 161C222.688 166.997 219.091 172.982 211 171L211 172C218.05 174.817 226.738 168.792 227 161z"/>
<path style="fill:#6a9397; stroke:none;" d="M237 161L238 162L237 161z"/>
<path style="fill:#958a5b; stroke:none;" d="M247 161L248 162L247 161z"/>
<path style="fill:#f0f4f5; stroke:none;" d="M324 175L324 176L345 180L358 161L324 175z"/>
<path style="fill:#6b8364; stroke:none;" d="M359 164L355 167L364 162C361.331 160.826 359.642 161.051 359 164M456 161L457 162L456 161M552.333 161.667L552.667 162.333L552.333 161.667z"/>
<path style="fill:#6a9397; stroke:none;" d="M555 161L555 162L559 162L559 161L555 161z"/>
<path style="fill:#958a5b; stroke:none;" d="M603 161L607 165L603 161z"/>
<path style="fill:#4b5737; stroke:none;" d="M181 162L181 163C182.96 163.653 183.554 164 181 164L181 165L184 164L184 163L181 162z"/>
<path style="fill:#6a9397; stroke:none;" d="M183 162L184 163L183 162M185 162L186 163L185 162z"/>
<path style="fill:#958a5b; stroke:none;" d="M188 162L189 163L188 162z"/>
<path style="fill:#6a9397; stroke:none;" d="M202.667 162.333L203.333 162.667L202.667 162.333z"/>
<path style="fill:#4b5737; stroke:none;" d="M235 162L235 163L238 163L235 162z"/>
<path style="fill:#6a9397; stroke:none;" d="M240 162L241 163L240 162z"/>
<path style="fill:#6b8364; stroke:none;" d="M251 162L250 164L251 162M349 165L350 165L351 163L349 165z"/>
<path style="fill:#6a9397; stroke:none;" d="M360 162L361 163L360 162M363 162L364 163L363 162z"/>
<path style="fill:#6b8364; stroke:none;" d="M370 162L371 163L370 162M457.333 162.667L457.667 163.333L457.333 162.667M463 162L464 163L463 162M468.667 162.333L469.333 162.667L468.667 162.333z"/>
<path style="fill:#6a9397; stroke:none;" d="M602 162L603 163L602 162z"/>
<path style="fill:#958a5b; stroke:none;" d="M141 163L142 164L141 163z"/>
<path style="fill:#4b5737; stroke:none;" d="M175.667 163.333L176.333 163.667L175.667 163.333z"/>
<path style="fill:#6a9397; stroke:none;" d="M184 163L185 164L184 163z"/>
<path style="fill:#4b5737; stroke:none;" d="M231 163L232 166L233 166L234 164L231 163M238 163L238 164L242 164L238 163z"/>
<path style="fill:#6a9397; stroke:none;" d="M243 163L244 164L243 163z"/>
<path style="fill:#6b8364; stroke:none;" d="M351 163L352 164L351 163z"/>
<path style="fill:#6a9397; stroke:none;" d="M361 163L362 164L361 163M368 163L369 164L368 163z"/>
<path style="fill:#6b8364; stroke:none;" d="M369 163L368 166L369 163M465 163L466 164L465 163M553 163L554 164L553 163z"/>
<path style="fill:#f0f4f5; stroke:none;" d="M564.333 163.667L564.667 164.333L564.333 163.667M604 163L605 164L604 163z"/>
<path style="fill:#6a9397; stroke:none;" d="M163 164L164 165L163 164M186 164L188 166L186 164M203 164L204 165L203 164z"/>
<path style="fill:#4b5737; stroke:none;" d="M242 164L242 165L250 167L250 166L242 164z"/>
<path style="fill:#6a9397; stroke:none;" d="M245.667 164.333L246.333 164.667L245.667 164.333z"/>
<path style="fill:#6b8364; stroke:none;" d="M346 164L346 167L347 167L346 164z"/>
<path style="fill:#6a9397; stroke:none;" d="M357 164L356 166L357 164M359.667 164.333L360.333 164.667L359.667 164.333z"/>
<path style="fill:#6b8364; stroke:none;" d="M454 164L454 166L456 166L456 164L454 164M458 164L460 167L458 164M467 164L468 165L467 164M554.667 164.333L555.333 164.667L554.667 164.333z"/>
<path style="fill:#f0f4f5; stroke:none;" d="M559 164L558 166L560 166L559 164z"/>
<path style="fill:#6a9397; stroke:none;" d="M604 164L605 165L604 164z"/>
<path style="fill:#958a5b; stroke:none;" d="M139 165L140 166L139 165z"/>
<path style="fill:#4b5737; stroke:none;" d="M184 165L185 167L186 167L187 165L184 165z"/>
<path style="fill:#6b8364; stroke:none;" d="M208 165L209 166L208 165z"/>
<path style="fill:#4b5737; stroke:none;" d="M226 168L230 168L231 168L230 165L226 168z"/>
<path style="fill:#6b8364; stroke:none;" d="M348 165L349 166L348 165z"/>
<path style="fill:#6a9397; stroke:none;" d="M358 165L359 166L358 165z"/>
<path style="fill:#6b8364; stroke:none;" d="M374 165L375 166L374 165M464 165L465 166L464 165M469 165L469 166L473 167L473 166L469 165M553 165L554 166L553 165z"/>
<path style="fill:#6a9397; stroke:none;" d="M602 165L601 167L602 165M605 165L606 166L605 165z"/>
<path style="fill:#958a5b; stroke:none;" d="M137 166L135 169L137 166z"/>
<path style="fill:#4b5737; stroke:none;" d="M182.667 166.333L183.333 166.667L182.667 166.333M187 166L187 168L189 168L187 166M235.667 166.333L236.333 166.667L235.667 166.333M242 166L243 167L242 166z"/>
<path style="fill:#6a9397; stroke:none;" d="M357 166L358 167L357 166z"/>
<path style="fill:#6b8364; stroke:none;" d="M457 166L459 170L457 166z"/>
<path style="fill:#f0f4f5; stroke:none;" d="M560 166L560 168L562 168L562 166L560 166z"/>
<path style="fill:#6a9397; stroke:none;" d="M607 166L609 168L607 166z"/>
<path style="fill:#4b5737; stroke:none;" d="M174.333 167.667L174.667 168.333L174.333 167.667z"/>
<path style="fill:#6a9397; stroke:none;" d="M190 167L191 168L190 167z"/>
<path style="fill:#4b5737; stroke:none;" d="M250 167L250 168L253 168L250 167z"/>
<path style="fill:#6b8364; stroke:none;" d="M344.667 167.333L345.333 167.667L344.667 167.333M354 167L355 168L354 167M364 167L365 168L364 167M367 167L368 168L367 167M460 167L462 170L460 167M462 167L463 168L462 167M473.667 167.333L474.333 167.667L473.667 167.333M557 167L558 168L557 167z"/>
<path style="fill:#4b5737; stroke:none;" d="M178 168L179 169L178 168M181 168L180 170L182 170L181 168M185 168L186 171L182 171L182 172L183 174L189 174L187 168L185 168M189 168L197 173L196 171L197 171L211 171L211 170L189 168z"/>
<path style="fill:#6b8364; stroke:none;" d="M343 168L344 169L343 168M352 168L352 171L353 171L352 168M362.333 168.667L362.667 169.333L362.333 168.667M475.667 168.333L476.333 168.667L475.667 168.333z"/>
<path style="fill:#f0f4f5; stroke:none;" d="M562 168L562 170L564 168L562 168z"/>
<path style="fill:#958a5b; stroke:none;" d="M609 168L609 170L611 170L611 168L609 168z"/>
<path style="fill:#6a9397; stroke:none;" d="M193 169L194 170L193 169z"/>
<path style="fill:#4b5737; stroke:none;" d="M256 169L256 170L266 173L266 172L256 169z"/>
<path style="fill:#6b8364; stroke:none;" d="M341 169L338 171L338 172L342 170L341 169M354 169L355 170L354 169M477.667 169.333L478.333 169.667L477.667 169.333z"/>
<path style="fill:#f0f4f5; stroke:none;" d="M566 169L567 170L566 169z"/>
<path style="fill:#958a5b; stroke:none;" d="M133 170L132 172L133 170z"/>
<path style="fill:#6b8364; stroke:none;" d="M358 170L359 171L358 170M462.333 170.667L462.667 171.333L462.333 170.667M479 170L480 171L479 170M560 170L564 174L560 170z"/>
<path style="fill:#f0f4f5; stroke:none;" d="M563 170L566 172L563 170z"/>
<path style="fill:#6a9397; stroke:none;" d="M610 170L611 171L610 170M153 171L152 173L153 171z"/>
<path style="fill:#4b5737; stroke:none;" d="M180 171L182 174L180 171M223 171L221 174L222 176L223 176L223 171z"/>
<path style="fill:#6b8364; stroke:none;" d="M324.667 171.333L325.333 171.667L324.667 171.333M335.667 171.333L336.333 171.667L335.667 171.333M350 171L351 172L350 171M357.333 171.667L357.667 172.333L357.333 171.667M438.667 171.333L439.333 171.667L438.667 171.333M481 171L482 172L481 171M485 171L486 172L485 171z"/>
<path style="fill:#958a5b; stroke:none;" d="M611 171L612 172L611 171M130 172L131 173L130 172z"/>
<path style="fill:#4b5737; stroke:none;" d="M192 172L195 176L195 175L195 173L192 172M202 173L202 174L210 173L202 173M256.667 172.333L257.333 172.667L256.667 172.333z"/>
<path style="fill:#6b8364; stroke:none;" d="M331 172L331 173L334 173L331 172M349 172L351 175L349 172M355 172L356 173L355 172M460 172L460 174L462 174L460 172M463 172L464 173L463 172M483 172L484 173L483 172z"/>
<path style="fill:#f0f4f5; stroke:none;" d="M566 172L567 173L566 172z"/>
<path style="fill:#6a9397; stroke:none;" d="M611 172L612 173L611 172z"/>
<path style="fill:#958a5b; stroke:none;" d="M98 173L99 174L98 173M100 173L103 176L103 175L100 173z"/>
<path style="fill:#4b5737; stroke:none;" d="M197 176L200 173L197 176M270 173L270 174L274 174L270 173z"/>
<path style="fill:#6b8364; stroke:none;" d="M327 173L327 174L330 174L327 173M464 173L466 176L464 173M485.667 173.333L486.333 173.667L485.667 173.333z"/>
<path style="fill:#f0f4f5; stroke:none;" d="M567.333 173.667L567.667 174.333L567.333 173.667z"/>
<path style="fill:#958a5b; stroke:none;" d="M612.333 173.667L612.667 174.333L612.333 173.667M128 174L126 177L128 174z"/>
<path style="fill:#4b5737; stroke:none;" d="M179.333 174.667L179.667 175.333L179.333 174.667M209 174L209 175L213 175L209 174M261 174L261 175L267 175L261 174M278 175L278 176L283 175L278 175M285 175L285 176L292 175L285 175M296 174L296 175L301 175L296 174z"/>
<path style="fill:#6b8364; stroke:none;" d="M324.667 174.333L325.333 174.667L324.667 174.333M358 174L359 175L358 174M431 174L430 176L432 176L431 174M487.667 174.333L488.333 174.667L487.667 174.333M566 174L567 175L566 174z"/>
<path style="fill:#958a5b; stroke:none;" d="M96 175L94 179L95 179L96 175z"/>
<path style="fill:#4b5737; stroke:none;" d="M182 175L178 178L178 179L186 182L183 178L184 178L182 175M185.667 175.333L186.333 175.667L185.667 175.333M215 175L216 176L215 175M256 175L257 176L256 175M293 175L293 176L296 176L293 175M316 175L316 176L321 176L316 175z"/>
<path style="fill:#6b8364; stroke:none;" d="M456 175L457 176L456 175M458.667 175.333L459.333 175.667L458.667 175.333M462 175L463 176L462 175M489.667 175.333L490.333 175.667L489.667 175.333M565 175L566 176L565 175M567 175L568 176L567 175z"/>
<path style="fill:#f0f4f5; stroke:none;" d="M608.333 175.667L608.667 176.333L608.333 175.667z"/>
<path style="fill:#6a9397; stroke:none;" d="M611 175L612 176L611 175M136 176L137 177L136 176M145 176L146 177L145 176z"/>
<path style="fill:#4b5737; stroke:none;" d="M178 176L179 177L178 176M322 176L322 177L334 180L322 176z"/>
<path style="fill:#6b8364; stroke:none;" d="M326 176L328 178L326 176z"/>
<path style="fill:#6a9397; stroke:none;" d="M327.667 176.333L328.333 176.667L327.667 176.333z"/>
<path style="fill:#6b8364; stroke:none;" d="M347 176L347 178L349 176L347 176M464 176L464 180L467 180L464 176M466 176L467 177L466 176M492 176L493 177L492 176z"/>
<path style="fill:#f0f4f5; stroke:none;" d="M570 176L572 181L574 177L575 179L576 179L575 176L574 176L572 179L570 176z"/>
<path style="fill:#958a5b; stroke:none;" d="M613.333 176.667L613.667 177.333L613.333 176.667M104 177L106 179L104 177z"/>
<path style="fill:#4b5737; stroke:none;" d="M191 177L192 178L191 177M320 177L321 178L320 177z"/>
<path style="fill:#6b8364; stroke:none;" d="M330 177L331 178L330 177z"/>
<path style="fill:#6a9397; stroke:none;" d="M331 177L331 178L334 178L331 177z"/>
<path style="fill:#6b8364; stroke:none;" d="M349 177L351 179L349 177M494.667 177.333L495.333 177.667L494.667 177.333z"/>
<path style="fill:#958a5b; stroke:none;" d="M124 178L125 179L124 178z"/>
<path style="fill:#6a9397; stroke:none;" d="M336.667 178.333L337.333 178.667L336.667 178.333z"/>
<path style="fill:#6b8364; stroke:none;" d="M346 178L347 179L346 178M467 178L468 179L467 178M497 178L498 179L497 178M569 178L570 179L569 178z"/>
<path style="fill:#958a5b; stroke:none;" d="M614 178L615 179L614 178M122 179L123 180L122 179z"/>
<path style="fill:#6a9397; stroke:none;" d="M136 179L137 180L136 179z"/>
<path style="fill:#4b5737; stroke:none;" d="M177 179L178 180L177 179M189 179L191 182L189 179M322.667 179.333L323.333 179.667L322.667 179.333M336 179L336 180L344 181L344 180L336 179z"/>
<path style="fill:#6b8364; stroke:none;" d="M339.667 179.333L340.333 179.667L339.667 179.333z"/>
<path style="fill:#6a9397; stroke:none;" d="M341 179L342 180L341 179z"/>
<path style="fill:#6b8364; stroke:none;" d="M468 179L469 180L468 179M499.667 179.333L500.333 179.667L499.667 179.333z"/>
<path style="fill:#f0f4f5; stroke:none;" d="M609 179L610 180L609 179z"/>
<path style="fill:#4b5737; stroke:none;" d="M320 180L321 181L320 180M321 183L321 184L332 181L321 183M335 180L338 182L338 181L335 180z"/>
<path style="fill:#6b8364; stroke:none;" d="M502 180L503 181L502 180M570.333 180.667L570.667 181.333L570.333 180.667z"/>
<path style="fill:#f0f4f5; stroke:none;" d="M574 180L578 191L579 191L574 180z"/>
<path style="fill:#958a5b; stroke:none;" d="M614 180L615 181L614 180M105 181L106 182L105 181z"/>
<path style="fill:#4b5737; stroke:none;" d="M340 182L340 183L349 183L349 182L346 183L347 181L340 182z"/>
<path style="fill:#6b8364; stroke:none;" d="M469 181L470 182L469 181M504.667 181.333L505.333 181.667L504.667 181.333M511 181L512 182L511 181z"/>
<path style="fill:#f0f4f5; stroke:none;" d="M612 181L612 184L613 184L612 181z"/>
<path style="fill:#6a9397; stroke:none;" d="M615 181L616 182L615 181z"/>
<path style="fill:#958a5b; stroke:none;" d="M108 182L109 183L108 182M111 182L112 183L111 182M119 182L118 184L119 182z"/>
<path style="fill:#4b5737; stroke:none;" d="M331 182L331 183L335 184L335 183L331 182M350 183L350 184L354 184L350 183z"/>
<path style="fill:#6b8364; stroke:none;" d="M466 182L467 185L468 185L469 182L466 182M506 182L506 183L509 183L506 182M569 182L570 183L569 182M571 182L572 183L571 182z"/>
<path style="fill:#f0f4f5; stroke:none;" d="M609.333 182.667L609.667 183.333L609.333 182.667z"/>
<path style="fill:#958a5b; stroke:none;" d="M615 182L616 183L615 182M88 183L87 185L88 183M91 183L92 184L91 183M113 183L114 184L113 183z"/>
<path style="fill:#4b5737; stroke:none;" d="M187 183L188 184L187 183M327.667 183.333L328.333 183.667L327.667 183.333z"/>
<path style="fill:#6b8364; stroke:none;" d="M412 184L412 185L416 183L412 184M469 183L472 185L469 183M509.667 183.333L510.333 183.667L509.667 183.333M572.333 183.667L572.667 184.333L572.333 183.667z"/>
<path style="fill:#4b5737; stroke:none;" d="M188 184C192.621 189.547 198.561 187.053 205 187L205 186L188 184M191 184L192 185L191 184M277 184L277 185L285 185L285 184L277 184M290 184L291 185L290 184M295 184L296 185L295 184M300 184L301 185L300 184M303 184L304 185L303 184M359 184L359 185L362 185L359 184z"/>
<path style="fill:#6b8364; stroke:none;" d="M448 184L449 185L448 184M461 184L461 185L466 186L466 185L461 184M512.667 184.333L513.333 184.667L512.667 184.333z"/>
<path style="fill:#f0f4f5; stroke:none;" d="M578 184L579 185L578 184M582 184L583 185L582 184z"/>
<path style="fill:#958a5b; stroke:none;" d="M615 184L616 185L615 184z"/>
<path style="fill:#6a9397; stroke:none;" d="M131 185L132 186L131 185z"/>
<path style="fill:#4b5737; stroke:none;" d="M213 185L213 186L216 186L213 185M221 185L221 186L224 186L221 185M290 186L290 187L294 186L290 186z"/>
<path style="fill:#6b8364; stroke:none;" d="M454 185L457 189L454 185M457 186L457 187L463 187L457 186M514.667 185.333L515.333 185.667L514.667 185.333z"/>
<path style="fill:#958a5b; stroke:none;" d="M617 185L618 186L617 185M86 186L81 192L86 186z"/>
<path style="fill:#4b5737; stroke:none;" d="M285 186L285 187L289 188L289 187L285 186z"/>
<path style="fill:#6a9397; stroke:none;" d="M296 186L294 187L294 188L296 186z"/>
<path style="fill:#4b5737; stroke:none;" d="M301 186L301 188L303 188L303 186L301 186M360.667 186.333L361.333 186.667L360.667 186.333M365 187L365 188L370 189L370 188C368.04 187.347 367.446 187 370 187L365 187z"/>
<path style="fill:#6b8364; stroke:none;" d="M466 187L466 188L474 186L466 187M517.667 186.333L518.333 186.667L517.667 186.333M573 186L575 189L573 186z"/>
<path style="fill:#4b5737; stroke:none;" d="M215 187L215 188L224 188L215 187M278 187L278 188L282 188L278 187M298 187L299 188L298 187M372 188L372 189L376 187L372 188z"/>
<path style="fill:#6b8364; stroke:none;" d="M376 187L376 189L380 189L380 187L376 187M519.667 187.333L520.333 187.667L519.667 187.333z"/>
<path style="fill:#f0f4f5; stroke:none;" d="M580 187L580 190L581 190L580 187z"/>
<path style="fill:#958a5b; stroke:none;" d="M618 187L619 188L618 187z"/>
<path style="fill:#4b5737; stroke:none;" d="M199 188L199 189L203 189L199 188M283 190L286 190L285 188L283 190z"/>
<path style="fill:#6b8364; stroke:none;" d="M458 188L459 189L458 188M521 188L521 189L524 189L521 188z"/>
<path style="fill:#f0f4f5; stroke:none;" d="M583.333 188.667L583.667 189.333L583.333 188.667M617 188L621 198L617 188z"/>
<path style="fill:#4b5737; stroke:none;" d="M206.667 189.333L207.333 189.667L206.667 189.333M276 189L276 190L282 191L276 189z"/>
<path style="fill:#6a9397; stroke:none;" d="M292 189L292 191L294 191L292 189z"/>
<path style="fill:#4b5737; stroke:none;" d="M296 189L297 190L296 189M300 189L295 191L295 192C297.326 191.872 301.047 191.815 300 189M361 189L361 190L364 190L361 189z"/>
<path style="fill:#6b8364; stroke:none;" d="M396 192L397 192L400 190L396 192M452 189L452 190L457 193L459 191L459 190L452 189M524.667 189.333L525.333 189.667L524.667 189.333M575.333 189.667L575.667 190.333L575.333 189.667z"/>
<path style="fill:#4b5737; stroke:none;" d="M215 190L216 191L215 190M220 190L221 191L220 190M222 190L223 191L222 190z"/>
<path style="fill:#6a9397; stroke:none;" d="M288 190L291 192L291 191L288 190z"/>
<path style="fill:#6b8364; stroke:none;" d="M376 190L376 191L382 194L390 192L376 190M394.333 190.667L394.667 191.333L394.333 190.667M461 190L462 191L461 190M520 190L521 191L520 190M526 190L526 191L529 191L526 190z"/>
<path style="fill:#958a5b; stroke:none;" d="M619 190C618.839 193.733 619.794 195.999 623 198L619 190z"/>
<path style="fill:#4b5737; stroke:none;" d="M272.667 191.333L273.333 191.667L272.667 191.333M302 191L303 192L302 191z"/>
<path style="fill:#6b8364; stroke:none;" d="M373 191L373 192L376 193L373 191M450 191L451 192L450 191M462.667 191.333L463.333 191.667L462.667 191.333M529.667 191.333L530.333 191.667L529.667 191.333M576.333 191.667L576.667 192.333L576.333 191.667z"/>
<path style="fill:#f0f4f5; stroke:none;" d="M581 191L580 193L582 193L581 191z"/>
<path style="fill:#4b5737; stroke:none;" d="M251 192L251 193L255 195L255 194L251 192M255 192L256 193L255 192M262.667 192.333L263.333 192.667L262.667 192.333z"/>
<path style="fill:#6a9397; stroke:none;" d="M272 192L272 193L280 193L272 192M298 192L299 193L298 192M300 192L300 198L301 198L300 192z"/>
<path style="fill:#4b5737; stroke:none;" d="M342 192L342 193L344 193L344 194L334 195L334 196L345 195L342 192M353.667 192.333L354.333 192.667L353.667 192.333z"/>
<path style="fill:#6b8364; stroke:none;" d="M368 192L371 194L371 193L368 192M459 192L459 193L464 194L464 193L459 192M532.667 192.333L533.333 192.667L532.667 192.333z"/>
<path style="fill:#f0f4f5; stroke:none;" d="M583 192L584 193L583 192M595 192L586 194L587 196L586 196L581 198L596 193L595 192z"/>
<path style="fill:#958a5b; stroke:none;" d="M594 196L561 205.816L537 206.61L450.285 242.569L391 251L391 252L422 253.625L468 247.09L494 250L494 251L477 258L477 259L518 258.582L559 238L559 242C578.959 230.518 592.601 213.694 600 192C596.893 192.402 594.372 192.665 594 196z"/>
<path style="fill:#6b8364; stroke:none;" d="M600 192L599 195L600 195L600 192z"/>
<path style="fill:#958a5b; stroke:none;" d="M601 192L604 195L601 192M603 192L604 193L603 192z"/>
<path style="fill:#f0f4f5; stroke:none;" d="M605 192L607 194L607 192L605 192M613.667 192.333L614.333 192.667L613.667 192.333z"/>
<path style="fill:#958a5b; stroke:none;" d="M78 193L80 195L78 193M112 193L113 194L112 193z"/>
<path style="fill:#6a9397; stroke:none;" d="M119 193L120 194L119 193z"/>
<path style="fill:#4b5737; stroke:none;" d="M187 193L188 194L187 193M258.667 193.333L259.333 193.667L258.667 193.333z"/>
<path style="fill:#6a9397; stroke:none;" d="M269 193L269 194L272 194L269 193z"/>
<path style="fill:#4b5737; stroke:none;" d="M304 193L304 194L307 194L304 193M311 193L310 195L310 196C312.565 195.449 312.86 194.86 311 193M318.667 193.333L319.333 193.667L318.667 193.333M324 193L324 194L328 194L331 197L331 196L328 196L328 195L330 194L324 193M332 193L332 194L336 194L332 193z"/>
<path style="fill:#6b8364; stroke:none;" d="M458 193L459 194L458 193M536.667 193.333L537.333 193.667L536.667 193.333M577 193L580 197L577 193z"/>
<path style="fill:#f0f4f5; stroke:none;" d="M579 193L580 196L584 195L584 194L579 193z"/>
<path style="fill:#4b5737; stroke:none;" d="M600 193L584.61 221.826L559 243L559 239L520 258L520 259L620 259L669 259L624.286 214.59L600 193z"/>
<path style="fill:#958a5b; stroke:none;" d="M604 193L605 194L604 193M76 194L78 196L76 194z"/>
<path style="fill:#6a9397; stroke:none;" d="M117 194L118 195L117 194z"/>
<path style="fill:#4b5737; stroke:none;" d="M180 196L180 197L184 198L186 195L180 196M248 197L251 194L248 197M256 194L257 195L256 194z"/>
<path style="fill:#6a9397; stroke:none;" d="M263.667 194.333L264.333 194.667L263.667 194.333M266 194L267 195L266 194M298 194L298 198L299 198L298 194z"/>
<path style="fill:#6b8364; stroke:none;" d="M359 199L360 196L359 196L358 196L355 198L355 199L357 200L353 203L359 208L356 202L361 201L363 196L368 199L369 199L368 196L372 197L371 199L376 202L376 194L367 196C363.773 192.361 361.34 196.418 359 199M464 194L467 196L464 194M539 194L539 195L542 195L539 194z"/>
<path style="fill:#6a9397; stroke:none;" d="M579.333 194.667L579.667 195.333L579.333 194.667z"/>
<path style="fill:#958a5b; stroke:none;" d="M585 194L585 196L587 196L585 194z"/>
<path style="fill:#6b8364; stroke:none;" d="M595 194L595 195L598 195L595 194z"/>
<path style="fill:#f0f4f5; stroke:none;" d="M611 194L611 196L613 196L611 194M615 194L617 197L615 194z"/>
<path style="fill:#958a5b; stroke:none;" d="M74 195L75 196L74 195z"/>
<path style="fill:#4b5737; stroke:none;" d="M189.667 195.333L190.333 195.667L189.667 195.333z"/>
<path style="fill:#6a9397; stroke:none;" d="M260.667 195.333L261.333 195.667L260.667 195.333M349 195L350 196L349 195z"/>
<path style="fill:#958a5b; stroke:none;" d="M350.667 195.333L351.333 195.667L350.667 195.333z"/>
<path style="fill:#6b8364; stroke:none;" d="M355.667 195.333L356.333 195.667L355.667 195.333M377 199L381 195L377 199M456 195L457 196L456 195M458 196L458 197L462 196L458 196M544.667 195.333L545.333 195.667L544.667 195.333M592.667 195.333L593.333 195.667L592.667 195.333z"/>
<path style="fill:#6a9397; stroke:none;" d="M604 195L605 196L604 195z"/>
<path style="fill:#958a5b; stroke:none;" d="M618 195L619 196L618 195z"/>
<path style="fill:#6a9397; stroke:none;" d="M266 196L266 197L272 197L266 196M274 196L275 197L274 196z"/>
<path style="fill:#4b5737; stroke:none;" d="M317 196L317 197L324 198L324 197L317 196z"/>
<path style="fill:#6a9397; stroke:none;" d="M368 196L372 198L368 196z"/>
<path style="fill:#6b8364; stroke:none;" d="M463 196L464 197L463 196M467.667 196.333L468.333 196.667L467.667 196.333M547.667 196.333L548.333 196.667L547.667 196.333M598 196L599 197L598 196z"/>
<path style="fill:#6a9397; stroke:none;" d="M605 196L606 197L605 196z"/>
<path style="fill:#958a5b; stroke:none;" d="M67 201L72 198L67 201z"/>
<path style="fill:#6b8364; stroke:none;" d="M140.667 197.333L141.333 197.667L140.667 197.333z"/>
<path style="fill:#4b5737; stroke:none;" d="M178.667 197.333L179.333 197.667L178.667 197.333z"/>
<path style="fill:#6a9397; stroke:none;" d="M251 197L251 198L257 200L257 197L251 197z"/>
<path style="fill:#4b5737; stroke:none;" d="M309 197L310 198L309 197M313 197L312 199L314 199L313 197z"/>
<path style="fill:#6b8364; stroke:none;" d="M342 197L339 199L338 202L342 202L352 213L352 212L349 211L351 209L349 206L352 205L352 204L343 199L346 198L342 197M469 197L469 198L473 199L473 198L469 197M552.667 197.333L553.333 197.667L552.667 197.333z"/>
<path style="fill:#958a5b; stroke:none;" d="M606 197L607 198L606 197z"/>
<path style="fill:#4b5737; stroke:none;" d="M140 198C137.55 206.719 139.723 209.433 148 213L125 236L138 236L138 237L97 249.722L76 244L83 236L50 230L46 244L50 242L50 259L341 259L431 259L475 258.471L493 251L493 250L466 247L432 252L413 254L380 252L250 227L194 216L178 209L140 198z"/>
<path style="fill:#6b8364; stroke:none;" d="M143 198L144 199L143 198z"/>
<path style="fill:#4b5737; stroke:none;" d="M161.667 198.333L162.333 198.667L161.667 198.333M176.667 198.333L177.333 198.667L176.667 198.333M191 198L192 199L191 198M242 198L238 201L238 202L244 198L242 198z"/>
<path style="fill:#6a9397; stroke:none;" d="M247 199L247 200L251 200L247 199M259.667 198.333L260.333 198.667L259.667 198.333M264 198L264 199L272 199L264 198z"/>
<path style="fill:#4b5737; stroke:none;" d="M304.667 198.333L305.333 198.667L304.667 198.333z"/>
<path style="fill:#6b8364; stroke:none;" d="M456 198L457 199L456 198M460.667 198.333L461.333 198.667L460.667 198.333M466 198L467 199L466 198M554 198L554 199L558 199L554 198M580 198L581 199L580 198M597 198L598 199L597 198z"/>
<path style="fill:#958a5b; stroke:none;" d="M607 198L610 200L607 198z"/>
<path style="fill:#f0f4f5; stroke:none;" d="M614 198L615 199L614 198z"/>
<path style="fill:#958a5b; stroke:none;" d="M71 199L72 200L71 199z"/>
<path style="fill:#6a9397; stroke:none;" d="M76 199L77 200L76 199z"/>
<path style="fill:#6b8364; stroke:none;" d="M138 199L139 200L138 199z"/>
<path style="fill:#958a5b; stroke:none;" d="M139 199L140 200L139 199z"/>
<path style="fill:#6b8364; stroke:none;" d="M146.667 199.333L147.333 199.667L146.667 199.333z"/>
<path style="fill:#4b5737; stroke:none;" d="M158 199L158 200L161 200L158 199M164.667 199.333L165.333 199.667L164.667 199.333M175 199L176 200L175 199M183 199L184 200L183 199M189 199L190 200L189 199z"/>
<path style="fill:#958a5b; stroke:none;" d="M321 199L322 200L321 199z"/>
<path style="fill:#6b8364; stroke:none;" d="M333 199L336 203L336 199L333 199M362 203L363 203L366 200L362 203z"/>
<path style="fill:#f0f4f5; stroke:none;" d="M365 201L365 202L372 201L365 201z"/>
<path style="fill:#958a5b; stroke:none;" d="M370.667 199.333L371.333 199.667L370.667 199.333z"/>
<path style="fill:#6b8364; stroke:none;" d="M381 199L384 201L381 199M463.667 199.333L464.333 199.667L463.667 199.333M469 199L470 200L469 199M473 199L474 200L473 199M558.667 199.333L559.333 199.667L558.667 199.333M576 199L574 200L574 201L576 199M581 199L582 200L581 199z"/>
<path style="fill:#f0f4f5; stroke:none;" d="M618 199L619 203L620 203L622 200L618 199z"/>
<path style="fill:#958a5b; stroke:none;" d="M623 199L624 200L623 199M72 236L84 236L77 244L98 249.501L136 237L136 236L124 236L147 215L147 213L137 208L139 200C121.653 203.083 101.537 217.476 86.7145 226.715C81.9585 229.68 75.1614 231.21 72 236z"/>
<path style="fill:#6b8364; stroke:none;" d="M149 200L150 201L149 200z"/>
<path style="fill:#4b5737; stroke:none;" d="M155.667 200.333L156.333 200.667L155.667 200.333M166 200L167 201L166 200M173 200L167 204L173 200M214 200L215 201L214 200M220 200L220 201L224 201L220 200M232 201L232 202L236 201L232 201z"/>
<path style="fill:#6a9397; stroke:none;" d="M245 200L246 201L245 200M264 200L265 201L264 200M268 200L269 201L268 200z"/>
<path style="fill:#6b8364; stroke:none;" d="M308 201L308 202L313 201L308 201M316 200L317 201L316 200M323 200L326 203L323 200M326 200L327 201L326 200z"/>
<path style="fill:#6a9397; stroke:none;" d="M340 201L340 202L344 202L340 201z"/>
<path style="fill:#958a5b; stroke:none;" d="M364 200C361.33 207.996 367.391 208.981 374 209L374 200L365 202L366 200L364 200z"/>
<path style="fill:#6b8364; stroke:none;" d="M474 200L474 201L478 202L478 201L474 200M562 200L562 201L565 201L562 200M568 200L569 201L568 200M596 200L597 201L596 200z"/>
<path style="fill:#6a9397; stroke:none;" d="M609 200L610 201L609 200z"/>
<path style="fill:#4b5737; stroke:none;" d="M159 201L160 202L159 201M175.333 201.667L175.667 202.333L175.333 201.667M207 203L211 202L207 203M216 201L216 202L219 202L216 201z"/>
<path style="fill:#958a5b; stroke:none;" d="M309 202L311 203L311 204L306 203L306 204L308 204L308 205L303 208L304 206C289.591 216.102 317.971 215.364 323 216L324 210C327.815 212.744 333.028 214.137 337.772 212.682C342.267 211.303 340.888 206.042 338 204L338 207L337 203L333 202L333 203L335 203L335 204C332.021 203.484 329.435 202.596 329 206L323 203L319 204L317 201L318 203L309 202z"/>
<path style="fill:#f0f4f5; stroke:none;" d="M312 201L312 202L318 203L312 201z"/>
<path style="fill:#6b8364; stroke:none;" d="M318 201L319 202L318 201M327 201L329 204L327 201M329 202L329 203L333 202L329 202z"/>
<path style="fill:#6a9397; stroke:none;" d="M374 201L375 202L374 201z"/>
<path style="fill:#6b8364; stroke:none;" d="M377 201L378 202L377 201M380 201L378 203L378 204L381 206L374 205L374 209L378 209C379.564 206.393 380.587 206.65 380 209L382 201L380 201M566.667 201.333L567.333 201.667L566.667 201.333M570 202L570 203L574 202L570 202M595 201L596 202L595 201z"/>
<path style="fill:#958a5b; stroke:none;" d="M610 201L611 202L610 201M612 201L615 204L612 201M623 201L624 202L623 201M66 202L67 203L66 202z"/>
<path style="fill:#6b8364; stroke:none;" d="M138.333 202.667L138.667 203.333L138.333 202.667z"/>
<path style="fill:#4b5737; stroke:none;" d="M221 202L221 203L224 203L221 202M236 202L231 203L231 204L237 203L236 202z"/>
<path style="fill:#6b8364; stroke:none;" d="M300 204L305 203L300 204M306.667 202.333L307.333 202.667L306.667 202.333z"/>
<path style="fill:#f0f4f5; stroke:none;" d="M311 202L312 203L311 202z"/>
<path style="fill:#4b5737; stroke:none;" d="M367 202L368 203L367 202z"/>
<path style="fill:#6b8364; stroke:none;" d="M472 205L478 205C475.53 202.908 474.096 202.343 472 205M478.667 202.333L479.333 202.667L478.667 202.333z"/>
<path style="fill:#958a5b; stroke:none;" d="M611 202L612 203L611 202z"/>
<path style="fill:#6a9397; stroke:none;" d="M615 202L616 203L615 202z"/>
<path style="fill:#958a5b; stroke:none;" d="M624.333 202.667L624.667 203.333L624.333 202.667z"/>
<path style="fill:#4b5737; stroke:none;" d="M200 203L201 204L200 203M211 203L211 204L218 204L211 203z"/>
<path style="fill:#6b8364; stroke:none;" d="M288.667 203.333L289.333 203.667L288.667 203.333M305.333 203.667L305.667 204.333L305.333 203.667z"/>
<path style="fill:#f0f4f5; stroke:none;" d="M308 203L308 204L311 204L308 203M319.667 203.333L320.333 203.667L319.667 203.333M332 203L332 204L335 204L332 203z"/>
<path style="fill:#6b8364; stroke:none;" d="M337 203L337 204L340 204L337 203M374.667 203.333L375.333 203.667L374.667 203.333M480 203L483 205L480 203M568.667 203.333L569.333 203.667L568.667 203.333z"/>
<path style="fill:#6a9397; stroke:none;" d="M612 203L613 204L612 203z"/>
<path style="fill:#f0f4f5; stroke:none;" d="M621.667 203.333L622.333 203.667L621.667 203.333z"/>
<path style="fill:#958a5b; stroke:none;" d="M63 204L60 209L65 204L63 204z"/>
<path style="fill:#4b5737; stroke:none;" d="M173.667 204.333L174.333 204.667L173.667 204.333z"/>
<path style="fill:#6b8364; stroke:none;" d="M265 204L261 206L261 209L255 211L255 212L256 216L257 216C262.263 209.064 264.424 207.573 273 209L272 206L271 206L272 208L271 208L265 204M268 204L268 205L271 205L268 204z"/>
<path style="fill:#f0f4f5; stroke:none;" d="M306.667 204.333L307.333 204.667L306.667 204.333z"/>
<path style="fill:#4b5737; stroke:none;" d="M311 204L312 205L311 204z"/>
<path style="fill:#f0f4f5; stroke:none;" d="M321 204L322 205L321 204M329.667 204.333L330.333 204.667L329.667 204.333M335 204L335 205L339 206L339 205L335 204z"/>
<path style="fill:#6b8364; stroke:none;" d="M340 204L341 208L342 208L340 204M360 204L361 205L360 204M362 204L363 205L362 204z"/>
<path style="fill:#958a5b; stroke:none;" d="M380.333 204.667L380.667 205.333L380.333 204.667z"/>
<path style="fill:#6b8364; stroke:none;" d="M565.667 204.333L566.333 204.667L565.667 204.333M594 204L595 205L594 204M613 204L614 205L613 204z"/>
<path style="fill:#958a5b; stroke:none;" d="M625 204L627 208L625 204z"/>
<path style="fill:#6b8364; stroke:none;" d="M137 205L137 208L138 208L137 205z"/>
<path style="fill:#4b5737; stroke:none;" d="M170 205L171 206L170 205M206.667 205.333L207.333 205.667L206.667 205.333M219 205L219 206L228 206L219 205z"/>
<path style="fill:#6b8364; stroke:none;" d="M239 205L240 206L239 205M299 206L299 207L305 206L299 206z"/>
<path style="fill:#f0f4f5; stroke:none;" d="M327.667 205.333L328.333 205.667L327.667 205.333z"/>
<path style="fill:#6b8364; stroke:none;" d="M479 205L480 206L479 205M483.667 205.333L484.333 205.667L483.667 205.333M537 205L537 206L564 206L537 205M593 205L594 206L593 205M614 205L615 206L614 205z"/>
<path style="fill:#4b5737; stroke:none;" d="M175.333 206.667L175.667 207.333L175.333 206.667M215.667 206.333L216.333 206.667L215.667 206.333z"/>
<path style="fill:#6b8364; stroke:none;" d="M224 208L227 208L226 206L224 208M255 206L256 207L255 206z"/>
<path style="fill:#f0f4f5; stroke:none;" d="M303 208L306 206L303 208z"/>
<path style="fill:#4b5737; stroke:none;" d="M337 206L338 207L337 206z"/>
<path style="fill:#6b8364; stroke:none;" d="M361.667 206.333L362.333 206.667L361.667 206.333M465.667 206.333L466.333 206.667L465.667 206.333M473 206L473 207L476 207L473 206M481.667 206.333L482.333 206.667L481.667 206.333M486 206L487 207L486 206M535.667 206.333L536.333 206.667L535.667 206.333M608 206L609 207L608 206M615 206L616 207L615 206z"/>
<path style="fill:#6a9397; stroke:none;" d="M624 206L625 207L624 206z"/>
<path style="fill:#4b5737; stroke:none;" d="M192 207L193 208L192 207M194 207L195 208L194 207M200.667 207.333L201.333 207.667L200.667 207.333z"/>
<path style="fill:#6b8364; stroke:none;" d="M234 208L234 209L239 209L234 208z"/>
<path style="fill:#958a5b; stroke:none;" d="M262 208L264 209L264 210C254.024 213.3 266.846 234.452 271.08 219.995C271.847 217.379 272.268 214.638 273 212L270 208L267 209L268 207L262 208z"/>
<path style="fill:#f0f4f5; stroke:none;" d="M266 207L267 208L266 207z"/>
<path style="fill:#6b8364; stroke:none;" d="M278.667 207.333L279.333 207.667L278.667 207.333M294 210L298 210L297 207L294 210M363 207L366 209L366 208L363 207M533.667 207.333L534.333 207.667L533.667 207.333M616 207L619 210L616 207z"/>
<path style="fill:#958a5b; stroke:none;" d="M617 207L618 208L617 207z"/>
<path style="fill:#6b8364; stroke:none;" d="M139 208L140 209L139 208z"/>
<path style="fill:#4b5737; stroke:none;" d="M186 208L186 209L192 209L186 208z"/>
<path style="fill:#6b8364; stroke:none;" d="M216 208L216 209L224 210L224 208L216 208M232 208L233 209L232 208M249 208L250 209L249 208M251 208L251 209L255 209L251 208z"/>
<path style="fill:#f0f4f5; stroke:none;" d="M264.667 208.333L265.333 208.667L264.667 208.333M267.667 208.333L268.333 208.667L267.667 208.333z"/>
<path style="fill:#6b8364; stroke:none;" d="M274 208L274 209L277 209L274 208M282 208L282 209L290 210L290 208L282 208z"/>
<path style="fill:#958a5b; stroke:none;" d="M296 208L297 209L296 208z"/>
<path style="fill:#6b8364; stroke:none;" d="M299 208L300 211L301 211L301 208L299 208M343 210L346 209L343 210M388 208L388 209L393 209L388 208M394 208L395 209L394 208M398 208L398 210L400 210L398 208M413 211L400 210L400 211L420 213L420 212L414 211L414 210L432 209C427.659 207.19 416.165 207.377 413 211M449 208L449 209L452 209L449 208M458 208L460 210L460 208L458 208M486.667 208.333L487.333 208.667L486.667 208.333M489 208L490 209L489 208M530.667 208.333L531.333 208.667L530.667 208.333M590 208L591 209L590 208z"/>
<path style="fill:#958a5b; stroke:none;" d="M618 208L619 209L618 208z"/>
<path style="fill:#6a9397; stroke:none;" d="M623 211L626 211L624 213L630 216L630 215L627 208L623 211z"/>
<path style="fill:#f0f4f5; stroke:none;" d="M625 208L626 209L625 208z"/>
<path style="fill:#6a9397; stroke:none;" d="M91 209L92 210L91 209z"/>
<path style="fill:#6b8364; stroke:none;" d="M141 209L142 210L141 209z"/>
<path style="fill:#6a9397; stroke:none;" d="M261 209L262 210L261 209z"/>
<path style="fill:#f0f4f5; stroke:none;" d="M262.667 209.333L263.333 209.667L262.667 209.333z"/>
<path style="fill:#4b5737; stroke:none;" d="M266 209L267 210L266 209z"/>
<path style="fill:#f0f4f5; stroke:none;" d="M269 209L271 211L271 209L269 209z"/>
<path style="fill:#958a5b; stroke:none;" d="M271 209L272 210L271 209z"/>
<path style="fill:#6b8364; stroke:none;" d="M384 209L384 210L387 210L384 209M432 209L432 210L437 210L432 209M447 209L438 210L438 211L446 211L446 212L444 212L444 213L448 213L447 209M453 209L453 210L456 210L453 209M461 209L461 210L464 210L461 209M470 209L471 210L470 209M478 209L478 210L481 211L478 209M483 209L484 210L483 209M490 211L493 211L492 209L490 211M528.667 209.333L529.333 209.667L528.667 209.333z"/>
<path style="fill:#958a5b; stroke:none;" d="M620 209L621 210L620 209M59 210L58 212L59 210z"/>
<path style="fill:#6a9397; stroke:none;" d="M62 210L63 211L62 210z"/>
<path style="fill:#958a5b; stroke:none;" d="M89.6667 210.333L90.3333 210.667L89.6667 210.333z"/>
<path style="fill:#6b8364; stroke:none;" d="M142 210L143 211L142 210z"/>
<path style="fill:#958a5b; stroke:none;" d="M258 210L257 213L258 210z"/>
<path style="fill:#6a9397; stroke:none;" d="M259 210L260 211L259 210z"/>
<path style="fill:#6b8364; stroke:none;" d="M271 210L272 211L271 210M324 210L320 216L320 217L324 214L327 216L324 210M388 210L388 211L392 211L388 210z"/>
<path style="fill:#4b5737; stroke:none;" d="M448 210L449 211L448 210z"/>
<path style="fill:#6b8364; stroke:none;" d="M449.667 210.333L450.333 210.667L449.667 210.333M472.667 210.333L473.333 210.667L472.667 210.333M485 211L485 212L489 212L485 211M526 210L527 211L526 210M144 211L145 212L144 211M180 211L180 212L192 212L180 211M194 211L195 212L194 211M199 211L200 212L199 211M208.667 211.333L209.333 211.667L208.667 211.333M272 211L273 212L272 211M340 211L333 213L333 214L340 217L338 214L348 214L340 211M397 211L397 212L400 212L397 211M424 211L424 212L432 212L424 211M451 211L451 212L456 212L451 211M461 211L461 212L469 212L461 211M523.667 211.333L524.333 211.667L523.667 211.333M590 211L591 212L590 211z"/>
<path style="fill:#958a5b; stroke:none;" d="M622 211L623 212L622 211M628 211L629 212L628 211z"/>
<path style="fill:#6a9397; stroke:none;" d="M60 212L61 213L60 212M63 212L63 216L64 216L63 212M89 212L90 213L89 212z"/>
<path style="fill:#6b8364; stroke:none;" d="M145.667 212.333L146.333 212.667L145.667 212.333M225 213L225 214L240 215L240 212L225 213M273 212L273 213L277 216L272 214L271 218L279 218L278 215L289 213L290 216L297 214C293.078 209.511 278.911 212.702 273 212M299 212L297 217L299 212z"/>
<path style="fill:#4b5737; stroke:none;" d="M324 212L325 213L324 212z"/>
<path style="fill:#6b8364; stroke:none;" d="M369 213L369 214L386 215L386 213L393 213L369 213M472 212L472 213L479 213L472 212M482.667 212.333L483.333 212.667L482.667 212.333M495 212L496 213L495 212M521 212L522 213L521 212z"/>
<path style="fill:#f0f4f5; stroke:none;" d="M626.667 212.333L627.333 212.667L626.667 212.333z"/>
<path style="fill:#958a5b; stroke:none;" d="M56 213L57 214L56 213z"/>
<path style="fill:#6b8364; stroke:none;" d="M143 213L145 215L143 213M147.333 213.667L147.667 214.333L147.333 213.667M190.667 213.333L191.333 213.667L190.667 213.333M194.667 213.333L195.333 213.667L194.667 213.333z"/>
<path style="fill:#6a9397; stroke:none;" d="M273 213L277 216L273 213z"/>
<path style="fill:#4b5737; stroke:none;" d="M328 213L328 214L333 214L328 213M340.667 213.333L341.333 213.667L340.667 213.333z"/>
<path style="fill:#6b8364; stroke:none;" d="M403 213L403 214L409 214L403 213M518.667 213.333L519.333 213.667L518.667 213.333z"/>
<path style="fill:#958a5b; stroke:none;" d="M623 213L625 215L623 213M629.333 213.667L629.667 214.333L629.333 213.667z"/>
<path style="fill:#6b8364; stroke:none;" d="M189 214L190 215L189 214M209 214L209 215L216 215L209 214M259.667 214.333L260.333 214.667L259.667 214.333z"/>
<path style="fill:#958a5b; stroke:none;" d="M328 214L328 215L334 215L328 214M338.667 214.333L339.333 214.667L338.667 214.333z"/>
<path style="fill:#6b8364; stroke:none;" d="M350 214L353 217L350 214M392 214L392 215L399 215L392 214M448 214L449 215L448 214M516 214L517 215L516 214M623 214L624 215L623 214z"/>
<path style="fill:#f0f4f5; stroke:none;" d="M628 214L629 215L628 214z"/>
<path style="fill:#6b8364; stroke:none;" d="M145 215L144 217L146 217L145 215M191 215L191 216L194 216L191 215M197 215L198 216L197 215M300.667 215.333L301.333 215.667L300.667 215.333M329 215L329 216L332 216L329 215M342.667 215.333L343.333 215.667L342.667 215.333M386 215L386 216L390 216L386 215M513 215L514 216L513 215z"/>
<path style="fill:#958a5b; stroke:none;" d="M625 215L626 216L625 215M54 216L55 217L54 216z"/>
<path style="fill:#6b8364; stroke:none;" d="M194.667 216.333L195.333 216.667L194.667 216.333M218 216L218 217L221 217L218 216M259 216L260 217L259 216z"/>
<path style="fill:#4b5737; stroke:none;" d="M271 216L272 217L271 216z"/>
<path style="fill:#6b8364; stroke:none;" d="M380 216L380 217L422 218L510 218C499.734 213.692 482.158 217 471 217C440.762 217 410.115 218.377 380 216M510.667 216.333L511.333 216.667L510.667 216.333z"/>
<path style="fill:#958a5b; stroke:none;" d="M626 216L627 217L626 216M628 216L628 217L631 218L631 217L631 216L628 216z"/>
<path style="fill:#f0f4f5; stroke:none;" d="M629 216L630 217L629 216z"/>
<path style="fill:#958a5b; stroke:none;" d="M79 217L80 218L79 217z"/>
<path style="fill:#6b8364; stroke:none;" d="M197.667 217.333L198.333 217.667L197.667 217.333M376 217L376 218L379 218L376 217z"/>
<path style="fill:#4b5737; stroke:none;" d="M379.667 217.333L380.333 217.667L379.667 217.333z"/>
<path style="fill:#6b8364; stroke:none;" d="M142 218L143 219L142 218M202 218L203 219L202 218z"/>
<path style="fill:#958a5b; stroke:none;" d="M628 218L629 219L628 218M631.333 218.667L631.667 219.333L631.333 218.667z"/>
<path style="fill:#6b8364; stroke:none;" d="M141 219L142 220L141 219M207 219L208 220L207 219z"/>
<path style="fill:#958a5b; stroke:none;" d="M629 219L630 220L629 219M50 220L51 221L50 220z"/>
<path style="fill:#6a9397; stroke:none;" d="M72 220L74 222L72 220z"/>
<path style="fill:#6b8364; stroke:none;" d="M140 220L141 221L140 220M213 220L214 221L213 220M504 220L505 221L504 220M627 220L626 222L627 220z"/>
<path style="fill:#958a5b; stroke:none;" d="M630 220L631 221L630 220M632 220L633 221L632 220z"/>
<path style="fill:#6a9397; stroke:none;" d="M51 221L52 222L51 221z"/>
<path style="fill:#6b8364; stroke:none;" d="M139 221L140 222L139 221M218 221L219 222L218 221M502 221L503 222L502 221M585 221L586 222L585 221z"/>
<path style="fill:#958a5b; stroke:none;" d="M631 221L632 222L631 221z"/>
<path style="fill:#6a9397; stroke:none;" d="M53 223L53 224L56 224L53 223z"/>
<path style="fill:#6b8364; stroke:none;" d="M138 222L139 223L138 222M223 222L224 223L223 222z"/>
<path style="fill:#958a5b; stroke:none;" d="M302 222C305.196 233.152 321.834 236.063 322 222L302 222M339 222C336.379 222.512 333.694 221.977 331.148 222.484C321.843 224.336 340.474 237.657 339 222z"/>
<path style="fill:#6b8364; stroke:none;" d="M584 222L585 223L584 222z"/>
<path style="fill:#958a5b; stroke:none;" d="M632 222L633 223L632 222M48 223L49 224L48 223z"/>
<path style="fill:#6b8364; stroke:none;" d="M137 223L138 224L137 223M229 223L230 224L229 223M582.667 223.333L583.333 223.667L582.667 223.333z"/>
<path style="fill:#958a5b; stroke:none;" d="M633 223L634 224L633 223z"/>
<path style="fill:#6b8364; stroke:none;" d="M136 224L137 225L136 224M234 224L235 225L234 224M581 224L582 225L581 224z"/>
<path style="fill:#958a5b; stroke:none;" d="M634 224L635 225L634 224M46 225L41 232L46 225z"/>
<path style="fill:#6a9397; stroke:none;" d="M53 225L54 226L53 225z"/>
<path style="fill:#6b8364; stroke:none;" d="M239 225L240 226L239 225M580 225L581 226L580 225z"/>
<path style="fill:#958a5b; stroke:none;" d="M50 226L51 227L50 226z"/>
<path style="fill:#6a9397; stroke:none;" d="M59 226L58 228L59 226M63 226L61 227L61 228L63 226z"/>
<path style="fill:#6b8364; stroke:none;" d="M245 226L246 227L245 226M579 226L580 227L579 226z"/>
<path style="fill:#958a5b; stroke:none;" d="M53 227L54 228L53 227z"/>
<path style="fill:#6b8364; stroke:none;" d="M250 227L251 228L250 227z"/>
<path style="fill:#958a5b; stroke:none;" d="M637 227L638 228L637 227M46 228L47 229L46 228z"/>
<path style="fill:#6b8364; stroke:none;" d="M256 228L257 229L256 228z"/>
<path style="fill:#958a5b; stroke:none;" d="M373 234L373 229C365.146 227.782 365.589 233.589 373 234z"/>
<path style="fill:#6b8364; stroke:none;" d="M576 228L577 229L576 228z"/>
<path style="fill:#958a5b; stroke:none;" d="M638 228L639 229L638 228M49 229L39 238L38 238L37 236L32 242L29 241L21 246L21 248L16 251C13.1479 250.92 12.3194 251.153 12 254L9 253L7 254L4 256L5 258L1 258L1 259L50 259L50 243L45 246L49 229z"/>
<path style="fill:#6b8364; stroke:none;" d="M50.6667 229.333L51.3333 229.667L50.6667 229.333z"/>
<path style="fill:#958a5b; stroke:none;" d="M52 229L53 230L52 229M59 229L60 230L59 229z"/>
<path style="fill:#6b8364; stroke:none;" d="M261 229L262 230L261 229M575 229L576 230L575 229z"/>
<path style="fill:#958a5b; stroke:none;" d="M639 229L640 230L639 229z"/>
<path style="fill:#6b8364; stroke:none;" d="M49.3333 230.667L49.6667 231.333L49.3333 230.667M53 230L54 231L53 230z"/>
<path style="fill:#958a5b; stroke:none;" d="M54 230L55 231L54 230z"/>
<path style="fill:#6b8364; stroke:none;" d="M266 230L267 231L266 230M574 230L575 231L574 230z"/>
<path style="fill:#958a5b; stroke:none;" d="M640 230L641 231L640 230z"/>
<path style="fill:#6b8364; stroke:none;" d="M47 231L44 233L44 234L48 232L47 231M56 231L57 232L56 231z"/>
<path style="fill:#958a5b; stroke:none;" d="M57 231L58 232L57 231M59 231L60 232L59 231z"/>
<path style="fill:#6b8364; stroke:none;" d="M272 231L273 232L272 231M573 231L574 232L573 231z"/>
<path style="fill:#958a5b; stroke:none;" d="M641 231L642 232L641 231z"/>
<path style="fill:#6b8364; stroke:none;" d="M59 232L60 233L59 232M277 232L278 233L277 232z"/>
<path style="fill:#958a5b; stroke:none;" d="M642 232L643 233L642 232M39 233L38 235L39 233z"/>
<path style="fill:#6b8364; stroke:none;" d="M62 233L63 234L62 233M126 233L127 234L126 233M282 233L283 234L282 233M570 233L571 234L570 233z"/>
<path style="fill:#958a5b; stroke:none;" d="M643 233L644 234L643 233z"/>
<path style="fill:#6b8364; stroke:none;" d="M42 234L43 235L42 234M48 234L49 235L48 234M64.6667 234.333L65.3333 234.667L64.6667 234.333M125 234L126 235L125 234M288 234L289 235L288 234M569 234L570 235L569 234z"/>
<path style="fill:#958a5b; stroke:none;" d="M644 234L645 235L644 234z"/>
<path style="fill:#6b8364; stroke:none;" d="M67 235L68 236L67 235z"/>
<path style="fill:#958a5b; stroke:none;" d="M69.6667 235.333L70.3333 235.667L69.6667 235.333z"/>
<path style="fill:#6b8364; stroke:none;" d="M71 235L72 236L71 235M124 235L125 236L124 235M136 235L136 237L138 237L136 235M293 235L294 236L293 235M568 235L569 236L568 235M645 235L646 236L645 235M38.3333 236.667L38.6667 237.333L38.3333 236.667M83 236L84 237L83 236M299 236L300 237L299 236M566 236L567 237L566 236M646 236L647 237L646 236M47 237L48 238L47 237M82 237L83 238L82 237M133 237L134 238L133 237M304 237L305 238L304 237M565 237L566 238L565 237M647 237L648 238L647 237M81 238L82 239L81 238M131 238L132 239L131 238M309.667 238.333L310.333 238.667L309.667 238.333M460 238L461 239L460 238M557.667 238.333L558.333 238.667L557.667 238.333M564 238L565 239L564 238M648 238L649 239L648 238M33 239L34 240L33 239M80 239L81 240L80 239M128 239L129 240L128 239M315 239L316 240L315 239M556 239L557 240L556 239M563 239L564 240L563 239M46.3333 240.667L46.6667 241.333L46.3333 240.667M79 240L80 241L79 240M125 240L126 241L125 240M320 240L321 241L320 240M554 240L555 241L554 240M561 240L562 241L561 240M650 240L651 241L650 240M30.6667 241.333L31.3333 241.667L30.6667 241.333M78 241L79 242L78 241M122 241L123 242L122 241M325 241L326 242L325 241M552 241L553 242L552 241M560 241L561 242L560 241M28.6667 242.333L29.3333 242.667L28.6667 242.333M49 242L50 243L49 242M77 242L78 243L77 242M119 242L120 243L119 242M331 242L332 243L331 242M550 242L551 243L550 242M559 242L560 243L559 242M652 242L653 243L652 242M27 243L28 244L27 243M45 243L45 246L48 245L48 244L45 243M48 243L49 244L48 243M76 243L77 244L76 243M116.667 243.333L117.333 243.667L116.667 243.333M336 243L337 244L336 243M548 243L549 244L548 243M77.6667 244.333L78.3333 244.667L77.6667 244.333M113.667 244.333L114.333 244.667L113.667 244.333M342 244L343 245L342 244M546 244L547 245L546 244M23 245L24 246L23 245M26 245L27 246L26 245M29 245L30 246L29 245M80.6667 245.333L81.3333 245.667L80.6667 245.333M110.667 245.333L111.333 245.667L110.667 245.333M347 245L348 246L347 245M544 245L545 246L544 245M22 246L23 247L22 246M84 246L85 247L84 246M108 246L109 247L108 246M352 246L353 247L352 246M542 246L543 247L542 246M20 247L21 248L20 247M87 247L88 248L87 247M105 247L106 248L105 247M358 247L359 248L358 247M464.667 247.333L465.333 247.667L464.667 247.333M475.667 247.333L476.333 247.667L475.667 247.333M540 247L541 248L540 247M19 248L20 249L19 248M90.6667 248.333L91.3333 248.667L90.6667 248.333M102 248L103 249L102 248M363.667 248.333L364.333 248.667L363.667 248.333M407 248L408 249L407 248M409 248L410 249L409 248z"/>
<path style="fill:#6a9397; stroke:none;" d="M433 248L433 250L435 248L433 248z"/>
<path style="fill:#6b8364; stroke:none;" d="M456 248L456 249L460 249L456 248M481 248L481 249L484 249L481 248M538 248L539 249L538 248M93 249L93 250L96 250L93 249M99 249L100 250L99 249M368.667 249.333L369.333 249.667L368.667 249.333M450 249L450 250L453 250L450 249M488 249L488 250L491 250L488 249M536 249L537 250L536 249M15 250L16 251L15 250M374.667 250.333L375.333 250.667L374.667 250.333M391 250L392 251L391 250M424 250L425 251L424 250M443 250L443 251L446 251L443 250M493 250L494 251L493 250M534 250L535 251L534 250M658 250L659 251L658 250M14 251L15 252L14 251M379 251L379 252L382 252L379 251M436 251L436 252L440 252L436 251M491 251L492 252L491 251M532 251L533 252L532 251M12 252L13 253L12 252M394 252L394 253L400 253L394 252M401 252L402 253L401 252M430.667 252.333L431.333 252.667L430.667 252.333M488.667 252.333L489.333 252.667L488.667 252.333M530 252L531 253L530 252M10.6667 253.333L11.3333 253.667L10.6667 253.333M412 253L412 254L419 254L412 253M423 253L423 254L426 254L423 253M486 253L487 254L486 253M528 253L529 254L528 253z"/>
<path style="fill:#958a5b; stroke:none;" d="M664 253L665 254L664 253z"/>
<path style="fill:#6b8364; stroke:none;" d="M8 254L9 255L8 254M103 254L104 255L103 254M484 254L485 255L484 254M491 254L492 255L491 254M523 254L524 255L523 254M526 254L527 255L526 254z"/>
<path style="fill:#958a5b; stroke:none;" d="M665 254L666 255L665 254z"/>
<path style="fill:#6b8364; stroke:none;" d="M7 255L8 256L7 255M10 255L11 256L10 255M482 255L483 256L482 255M524 255L525 256L524 255z"/>
<path style="fill:#958a5b; stroke:none;" d="M666 255L667 256L666 255z"/>
<path style="fill:#6b8364; stroke:none;" d="M5 256L6 257L5 256M480 256L481 257L480 256M522 256L523 257L522 256z"/>
<path style="fill:#958a5b; stroke:none;" d="M667 256L668 257L667 256z"/>
<path style="fill:#6b8364; stroke:none;" d="M3.66667 257.333L4.33333 257.667L3.66667 257.333M6 257L7 258L6 257M478 257L479 258L478 257z"/>
<path style="fill:#958a5b; stroke:none;" d="M668 257L669 258L668 257z"/>
<path style="fill:#6b8364; stroke:none;" d="M2 258L3 259L2 258M475.667 258.333L476.333 258.667L475.667 258.333M519 258L520 259L519 258M648 258L648 259L665 259L648 258M666 258L667 259L666 258z"/>
<path style="fill:#958a5b; stroke:none;" d="M669 258L670 259L669 258z"/>
</svg>
