<?xml version="1.0" encoding="UTF-8" standalone="no"?>
<svg
   width="820"
   height="326"
   version="1.1"
   id="svg640"
   sodipodi:docname="mountain.svg"
   inkscape:version="1.2 (dc2aeda, 2022-05-15)"
   xmlns:inkscape="http://www.inkscape.org/namespaces/inkscape"
   xmlns:sodipodi="http://sodipodi.sourceforge.net/DTD/sodipodi-0.dtd"
   xmlns="http://www.w3.org/2000/svg"
   xmlns:svg="http://www.w3.org/2000/svg">
  <defs
     id="defs644" />
  <sodipodi:namedview
     id="namedview642"
     pagecolor="#505050"
     bordercolor="#eeeeee"
     borderopacity="1"
     inkscape:showpageshadow="0"
     inkscape:pageopacity="0"
     inkscape:pagecheckerboard="0"
     inkscape:deskcolor="#505050"
     showgrid="false"
     inkscape:zoom="1.3452275"
     inkscape:cx="359.41875"
     inkscape:cy="93.292768"
     inkscape:window-width="1848"
     inkscape:window-height="1009"
     inkscape:window-x="0"
     inkscape:window-y="34"
     inkscape:window-maximized="1"
     inkscape:current-layer="svg640" />
  <path
     style="fill:#f7f7f7;stroke:none;stroke-width:0.473583"
     d="M 122.15773,192.66199 V 314.00528 H 616.24961 V 192.66199 Z"
     id="path2" />
  <path
     style="fill:#b2d4ae; stroke:none;"
     d="M237 90C241.947 87.008 244.028 87.1099 249 90C244.936 84.8771 240.996 84.7718 237 90z"
     id="path4" />
  <path
     style="fill:#a7d977; stroke:none;"
     d="M241 86L242 87L241 86z"
     id="path6" />
  <path
     style="fill:#74b56d; stroke:none;"
     d="M210 129L218.43 139.593L229 136.661L241 145.079L255 143C261.438 132.163 264.052 144.001 271.772 141.338C277.674 139.302 275.813 125.447 273 122L279 122L279 121C270.311 120.718 260.966 109.204 259 101C252.272 99.0088 250.882 88.4368 243.965 86.9707C239.104 85.9405 235.573 92.7582 233.341 96C225.808 106.94 215.702 116.947 210 129z"
     id="path8" />
  <path
     style="fill:#b2d4ae; stroke:none;"
     d="M336 86L336 87L339 87L336 86M332.667 87.3333L333.333 87.6667L332.667 87.3333z"
     id="path10" />
  <path
     style="fill:#74b56d; stroke:none;"
     d="M334 87L334 88L342 88L334 87z"
     id="path12" />
  <path
     style="fill:#b2d4ae; stroke:none;"
     d="M342.667 87.3333L343.333 87.6667L342.667 87.3333M290 88L290 89L295 89L290 88z"
     id="path14" />
  <path
     style="fill:#74b56d; stroke:none;"
     d="M331 88L330 90L331 88z"
     id="path16" />
  <path
     style="fill:#538e50; stroke:none;"
     d="M262 95C256.94 103.766 263.579 113.669 271.3 119.397C275.884 122.798 284.512 122.236 290 123.261C300.63 125.245 310.526 129.577 321 132L336 110C340.951 120.603 347.767 138.487 356.39 146.363C363.918 153.238 379.395 157.729 389 161C396.175 136.726 378.009 121.087 361.999 105C356.806 99.782 350.352 90.4447 343 88.4336C332.172 85.4719 328.594 95.2008 319.285 96.0833C310.118 96.9526 302.861 89.5577 294 89.1088C286.208 88.714 282.711 95.9074 276 98.2716C270.891 100.071 266.385 97.2948 262 95z"
     id="path18" />
  <path
     style="fill:#74b56d; stroke:none;"
     d="M344 88L345 89L344 88z"
     id="path20" />
  <path
     style="fill:#b2d4ae; stroke:none;"
     d="M345 88L346 89L345 88z"
     id="path22" />
  <path
     style="fill:#74b56d; stroke:none;"
     d="M288 89L289 90L288 89M297 89L298 90L297 89z"
     id="path24" />
  <path
     style="fill:#b2d4ae; stroke:none;"
     d="M298 89L299 90L298 89M329 89L330 90L329 89z"
     id="path26" />
  <path
     style="fill:#74b56d; stroke:none;"
     d="M346 89L355 98L346 89z"
     id="path28" />
  <path
     style="fill:#b2d4ae; stroke:none;"
     d="M347 89L348 90L347 89z"
     id="path30" />
  <path
     style="fill:#a7d977; stroke:none;"
     d="M237 90L238 91L237 90M248 90L249 91L248 90z"
     id="path32" />
  <path
     style="fill:#b2d4ae; stroke:none;"
     d="M286 90L287 91L286 90z"
     id="path34" />
  <path
     style="fill:#74b56d; stroke:none;"
     d="M300 90L301 91L300 90z"
     id="path36" />
  <path
     style="fill:#b2d4ae; stroke:none;"
     d="M301 90L302 91L301 90M328 90L329 91L328 90M348 90L349 91L348 90M236 91L237 92L236 91M249 91L250 92L249 91z"
     id="path38" />
  <path
     style="fill:#74b56d; stroke:none;"
     d="M285 91L286 92L285 91M302 91L303 92L302 91z"
     id="path40" />
  <path
     style="fill:#b2d4ae; stroke:none;"
     d="M303 91L304 92L303 91M327 91L325 94L327 91M349 91L350 92L349 91M235 92L236 93L235 92M250 92L251 93L250 92M283 92L281 95L283 92z"
     id="path42" />
  <path
     style="fill:#74b56d; stroke:none;"
     d="M284 92L285 93L284 92M304 92L305 93L304 92z"
     id="path44" />
  <path
     style="fill:#b2d4ae; stroke:none;"
     d="M305.667 92.3333L306.333 92.6667L305.667 92.3333z"
     id="path46" />
  <path
     style="fill:#74b56d; stroke:none;"
     d="M327 92L328 93L327 92z"
     id="path48" />
  <path
     style="fill:#b2d4ae; stroke:none;"
     d="M350 92L351 93L350 92M234.333 93.6667L234.667 94.3333L234.333 93.6667M251 93L252 96L253 96L251 93M261 93L258 101L259 101L262 94L266 97L261 93z"
     id="path50" />
  <path
     style="fill:#74b56d; stroke:none;"
     d="M283 93L284 94L283 93M307 93L308 94L307 93z"
     id="path52" />
  <path
     style="fill:#b2d4ae; stroke:none;"
     d="M308.667 93.3333L309.333 93.6667L308.667 93.3333z"
     id="path54" />
  <path
     style="fill:#74b56d; stroke:none;"
     d="M326 93L327 94L326 93z"
     id="path56" />
  <path
     style="fill:#b2d4ae; stroke:none;"
     d="M351 93L352 94L351 93z"
     id="path58" />
  <path
     style="fill:#a7d977; stroke:none;"
     d="M251 94L252 95L251 94z"
     id="path60" />
  <path
     style="fill:#74b56d; stroke:none;"
     d="M262 94L263 95L262 94M282 94L283 95L282 94M309.667 94.3333L310.333 94.6667L309.667 94.3333z"
     id="path62" />
  <path
     style="fill:#b2d4ae; stroke:none;"
     d="M311.667 94.3333L312.333 94.6667L311.667 94.3333M323.667 94.3333L324.333 94.6667L323.667 94.3333M352 94L353 95L352 94M233 95L234 96L233 95z"
     id="path64" />
  <path
     style="fill:#74b56d; stroke:none;"
     d="M261 95L262 96L261 95M263 95L264 96L263 95z"
     id="path66" />
  <path
     style="fill:#b2d4ae; stroke:none;"
     d="M280 95L281 96L280 95z"
     id="path68" />
  <path
     style="fill:#74b56d; stroke:none;"
     d="M312.667 95.3333L313.333 95.6667L312.667 95.3333z"
     id="path70" />
  <path
     style="fill:#b2d4ae; stroke:none;"
     d="M314 95L314 96L322 96L314 95z"
     id="path72" />
  <path
     style="fill:#74b56d; stroke:none;"
     d="M322.667 95.3333L323.333 95.6667L322.667 95.3333z"
     id="path74" />
  <path
     style="fill:#b2d4ae; stroke:none;"
     d="M353 95L354 96L353 95M232 96L233 97L232 96M253 96L254 97L253 96z"
     id="path76" />
  <path
     style="fill:#74b56d; stroke:none;"
     d="M264 96L265 97L264 96M279 96L280 97L279 96M318 96L319 97L318 96z"
     id="path78" />
  <path
     style="fill:#b2d4ae; stroke:none;"
     d="M354 96L355 97L354 96z"
     id="path80" />
  <path
     style="fill:#a7d977; stroke:none;"
     d="M232 97L233 98L232 97z"
     id="path82" />
  <path
     style="fill:#b2d4ae; stroke:none;"
     d="M254 97L255 98L254 97z"
     id="path84" />
  <path
     style="fill:#74b56d; stroke:none;"
     d="M260 97L261 98L260 97M266 97L267 98L266 97z"
     id="path86" />
  <path
     style="fill:#b2d4ae; stroke:none;"
     d="M267 97L268 98L267 97M277 97L278 98L277 97z"
     id="path88" />
  <path
     style="fill:#74b56d; stroke:none;"
     d="M278 97L279 98L278 97z"
     id="path90" />
  <path
     style="fill:#b2d4ae; stroke:none;"
     d="M231 98L232 99L231 98M255 98L256 99L255 98z"
     id="path92" />
  <path
     style="fill:#74b56d; stroke:none;"
     d="M268.667 98.3333L269.333 98.6667L268.667 98.3333z"
     id="path94" />
  <path
     style="fill:#b2d4ae; stroke:none;"
     d="M270 98L270 99L276 99L270 98z"
     id="path96" />
  <path
     style="fill:#74b56d; stroke:none;"
     d="M276 98L277 99L276 98M355 98L356 99L355 98z"
     id="path98" />
  <path
     style="fill:#b2d4ae; stroke:none;"
     d="M230 99L229 102L230 102L230 99z"
     id="path100" />
  <path
     style="fill:#a7d977; stroke:none;"
     d="M255 99L256 100L255 99z"
     id="path102" />
  <path
     style="fill:#74b56d; stroke:none;"
     d="M259 99L260 100L259 99M356 99L357 100L356 99z"
     id="path104" />
  <path
     style="fill:#a7d977; stroke:none;"
     d="M230 100L231 101L230 100z"
     id="path106" />
  <path
     style="fill:#b2d4ae; stroke:none;"
     d="M256 100L257 101L256 100z"
     id="path108" />
  <path
     style="fill:#74b56d; stroke:none;"
     d="M357 100L358 101L357 100z"
     id="path110" />
  <path
     style="fill:#b2d4ae; stroke:none;"
     d="M257 101L258 102L257 101z"
     id="path112" />
  <path
     style="fill:#74b56d; stroke:none;"
     d="M358 101L359 102L358 101z"
     id="path114" />
  <path
     style="fill:#b2d4ae; stroke:none;"
     d="M228 102L229 103L228 102M359 102L360 103L359 102M227 103L226 106L227 106L227 103M360 103L361 104L360 103z"
     id="path116" />
  <path
     style="fill:#a7d977; stroke:none;"
     d="M227 104L228 105L227 104z"
     id="path118" />
  <path
     style="fill:#b2d4ae; stroke:none;"
     d="M361 104L362 105L361 104M362 105L363 106L362 105M225 106L226 107L225 106M363 106L364 107L363 106M224 107L225 108L224 107M364 107L365 108L364 107M223 108L224 109L223 108M365 108L366 109L365 108z"
     id="path120" />
  <path
     style="fill:#a7d977; stroke:none;"
     d="M223 109L224 110L223 109z"
     id="path122" />
  <path
     style="fill:#b2d4ae; stroke:none;"
     d="M366 109L367 110L366 109M222 110L223 111L222 110z"
     id="path124" />
  <path
     style="fill:#74b56d; stroke:none;"
     d="M312 146L314 145L314 146L309 157C312.609 157.896 313.316 159.342 313 163L330 163.239L342.83 167.469L353 160.372L363 164C356.191 150.548 365.82 153.731 370 164L371 164L369 152L361 151L362 149L357 148L360 149L360 148C348.603 141.764 343.063 120.709 336 110C326.818 114.694 316.148 136.556 312 146z"
     id="path126" />
  <path
     style="fill:#b2d4ae; stroke:none;"
     d="M367 110L368 111L367 110M221 111L222 112L221 111M368 111L369 112L368 111M220.333 112.667L220.667 113.333L220.333 112.667M369 112L374 117L369 112z"
     id="path128" />
  <path
     style="fill:#74b56d; stroke:none;"
     d="M369 113L370 114L369 113z"
     id="path130" />
  <path
     style="fill:#b2d4ae; stroke:none;"
     d="M219 114L220 115L219 114z"
     id="path132" />
  <path
     style="fill:#74b56d; stroke:none;"
     d="M370 114L371 115L370 114z"
     id="path134" />
  <path
     style="fill:#b2d4ae; stroke:none;"
     d="M218 115L217 118L218 118L218 115z"
     id="path136" />
  <path
     style="fill:#74b56d; stroke:none;"
     d="M371 115L372 116L371 115z"
     id="path138" />
  <path
     style="fill:#a7d977; stroke:none;"
     d="M218 116L219 117L218 116z"
     id="path140" />
  <path
     style="fill:#74b56d; stroke:none;"
     d="M372 116L373 117L372 116M373 117L374 118L373 117z"
     id="path142" />
  <path
     style="fill:#b2d4ae; stroke:none;"
     d="M216 118L217 119L216 118M374 118L375 119L374 118M215 119L216 120L215 119M375 119L376 120L375 119M376 120L377 121L376 120M214 121L215 122L214 121M377 121L378 122L377 121M213 122L214 123L213 122z"
     id="path144" />
  <path
     style="fill:#a7d977; stroke:none;"
     d="M273 122C275.011 125.574 277.352 140.181 270.891 141.079C263.712 142.078 259.6 131.415 255 143C247.788 138.986 246.838 145.302 241 144.37C236.219 143.606 234.551 136.738 229 136.337C225.535 136.087 221.897 140.467 218.803 139.391C214.324 137.833 216.511 128.68 209.981 129.662C204.886 130.429 201.113 136.351 197 139.034C187.134 145.468 176.01 150.046 166 156.319C131.245 178.099 98.2702 203.312 71.9205 235C62.4124 246.435 50.2636 260.505 46 275C79.5419 257.352 118.704 253.621 156 257.17C173.841 258.868 192.083 262.951 210 263C209.584 248.621 210.091 232.519 215.85 219C217.17 215.902 219.718 206.056 224 206.056C227.979 206.056 229.844 214.174 231.011 217C232.801 221.338 236.007 226.287 236.481 231C236.873 234.881 234.971 237.997 236.045 242C237.459 247.272 241.451 252.495 237 257C239.142 273.484 267.851 268.734 281 270.285C312.778 274.035 346.224 273.568 378 270.166C393.999 268.453 411.156 266.58 426 260L426 259L414.032 254.852L416.392 238L414.677 230L418.456 218L417.714 207L430 179L431 179L443.417 207L442.454 216L446.248 229L448 251L479 238.306L492.297 231.582L497 215C491.952 209.906 497.417 203.918 498.464 198C499.611 191.512 497.712 186.776 500 180L482 180L475 191L474 187L473 187C473.647 195.576 470.218 194.783 466 201L459.117 194.687L460 179C435.567 178.496 409.773 168.599 387 160.459C380.346 158.08 373.983 154.241 367 153L371 164L370 164C366.501 152.051 353.715 151.269 363 164L352.001 160.122L341.91 167.045L329 162.808L313 163C314.288 157.224 310.898 156.368 306 158L320 132L273 122z"
     id="path146" />
  <path
     style="fill:#74b56d; stroke:none;"
     d="M282 122L282 123L286 123L282 122z"
     id="path148" />
  <path
     style="fill:#b2d4ae; stroke:none;"
     d="M378 122L381 125L378 122M212.333 123.667L212.667 124.333L212.333 123.667z"
     id="path150" />
  <path
     style="fill:#a7d977; stroke:none;"
     d="M263.422 124.086C259.76 126.304 262.518 133.607 266.697 131.744C270.857 129.889 267.724 121.481 263.422 124.086z"
     id="path152" />
  <path
     style="fill:#74b56d; stroke:none;"
     d="M287 123L287 124L292 124L287 123M378 123L379 124L378 123M292 124L292 125L296 125L292 124M379 124L380 125L379 124z"
     id="path154" />
  <path
     style="fill:#b2d4ae; stroke:none;"
     d="M211 125L212 126L211 125z"
     id="path156" />
  <path
     style="fill:#74b56d; stroke:none;"
     d="M297 125L297 126L300 126L297 125M380 125L381 126L380 125z"
     id="path158" />
  <path
     style="fill:#b2d4ae; stroke:none;"
     d="M210 126L211 127L210 126z"
     id="path160" />
  <path
     style="fill:#74b56d; stroke:none;"
     d="M301 126L301 127L304 127L301 126M381 126L382 127L381 126z"
     id="path162" />
  <path
     style="fill:#a7d977; stroke:none;"
     d="M210 127L211 128L210 127z"
     id="path164" />
  <path
     style="fill:#74b56d; stroke:none;"
     d="M305.667 127.333L306.333 127.667L305.667 127.333z"
     id="path166" />
  <path
     style="fill:#b2d4ae; stroke:none;"
     d="M382 127L383 128L382 127M209 128L210 129L209 128z"
     id="path168" />
  <path
     style="fill:#74b56d; stroke:none;"
     d="M308.667 128.333L309.333 128.667L308.667 128.333z"
     id="path170" />
  <path
     style="fill:#b2d4ae; stroke:none;"
     d="M383 128L387 132L383 128M208 129L209 130L208 129z"
     id="path172" />
  <path
     style="fill:#74b56d; stroke:none;"
     d="M311.667 129.333L312.333 129.667L311.667 129.333M383 129L384 130L383 129z"
     id="path174" />
  <path
     style="fill:#b2d4ae; stroke:none;"
     d="M206.667 130.333L207.333 130.667L206.667 130.333z"
     id="path176" />
  <path
     style="fill:#74b56d; stroke:none;"
     d="M314.667 130.333L315.333 130.667L314.667 130.333M384 130L385 131L384 130z"
     id="path178" />
  <path
     style="fill:#b2d4ae; stroke:none;"
     d="M205 131L206 132L205 131z"
     id="path180" />
  <path
     style="fill:#74b56d; stroke:none;"
     d="M317.667 131.333L318.333 131.667L317.667 131.333M385 131L386 132L385 131z"
     id="path182" />
  <path
     style="fill:#b2d4ae; stroke:none;"
     d="M204 132L205 133L204 132z"
     id="path184" />
  <path
     style="fill:#74b56d; stroke:none;"
     d="M386 132L387 133L386 132z"
     id="path186" />
  <path
     style="fill:#b2d4ae; stroke:none;"
     d="M203 133L204 134L203 133M387 133L388 134L387 133M400 133L400 134L400 135L408 147L400 133M202 134L203 135L202 134M388 134L390 136L388 134z"
     id="path188" />
  <path
     style="fill:#74b56d; stroke:none;"
     d="M401 134L399 141L398 141L395 136L391 139L389 161C405.468 168.702 426.685 175.848 445 176C436.234 165.232 420.2 156.174 407 155L409 148L412 150L413 150L411 141L410 141L409 147L405 144L404 144L405 147L393 150C393.246 145.528 394.036 142.56 399 143L400 140L403 143L404 143L401 134z"
     id="path190" />
  <path
     style="fill:#b2d4ae; stroke:none;"
     d="M201 135L202 136L201 135z"
     id="path192" />
  <path
     style="fill:#74b56d; stroke:none;"
     d="M388 135L389 136L388 135z"
     id="path194" />
  <path
     style="fill:#b2d4ae; stroke:none;"
     d="M395.667 135.333L396.333 135.667L395.667 135.333M200 136L201 137L200 136z"
     id="path196" />
  <path
     style="fill:#74b56d; stroke:none;"
     d="M389 136L390 137L389 136z"
     id="path198" />
  <path
     style="fill:#b2d4ae; stroke:none;"
     d="M394 136L392 140L394 136M397.333 136.667L397.667 137.333L397.333 136.667M399 136L400 137L399 136z"
     id="path200" />
  <path
     style="fill:#a7d977; stroke:none;"
     d="M402 136L403 137L402 136z"
     id="path202" />
  <path
     style="fill:#b2d4ae; stroke:none;"
     d="M199 137L200 138L199 137M390 137L391 138L390 137z"
     id="path204" />
  <path
     style="fill:#a7d977; stroke:none;"
     d="M399 137L400 138L399 137z"
     id="path206" />
  <path
     style="fill:#b2d4ae; stroke:none;"
     d="M198 138L199 139L198 138M391 138L392 139L391 138z"
     id="path208" />
  <path
     style="fill:#a7d977; stroke:none;"
     d="M394 138L395 139L394 138z"
     id="path210" />
  <path
     style="fill:#b2d4ae; stroke:none;"
     d="M398 138L399 139L398 138M196 139L197 140L196 139z"
     id="path212" />
  <path
     style="fill:#a7d977; stroke:none;"
     d="M398.333 139.667L398.667 140.333L398.333 139.667z"
     id="path214" />
  <path
     style="fill:#b2d4ae; stroke:none;"
     d="M194 140L195 141L194 140z"
     id="path216" />
  <path
     style="fill:#538e50; stroke:none;"
     d="M400 140L399 143C393.624 141.748 393.113 145.353 393 150L405 147L400 140z"
     id="path218" />
  <path
     style="fill:#b2d4ae; stroke:none;"
     d="M410 140L411 141L410 140M192 141L193 142L192 141z"
     id="path220" />
  <path
     style="fill:#538e50; stroke:none;"
     d="M315 141L314 145L315 145L315 141z"
     id="path222" />
  <path
     style="fill:#b2d4ae; stroke:none;"
     d="M409.333 141.667L409.667 142.333L409.333 141.667M411.333 141.667L411.667 142.333L411.333 141.667M190 142L191 143L190 142M188 143L189 144L188 143M412 143L412 147L413 147L412 143M186 144L187 145L186 144M408 144L409 145L408 144M184.667 145.333L185.333 145.667L184.667 145.333z"
     id="path224" />
  <path
     style="fill:#538e50; stroke:none;"
     d="M313 145L308 157L309 157L313 145z"
     id="path226" />
  <path
     style="fill:#a7d977; stroke:none;"
     d="M405 145L406 146L405 145M408.333 145.667L408.667 146.333L408.333 145.667z"
     id="path228" />
  <path
     style="fill:#b2d4ae; stroke:none;"
     d="M182.667 146.333L183.333 146.667L182.667 146.333M180.667 147.333L181.333 147.667L180.667 147.333z"
     id="path230" />
  <path
     style="fill:#74b56d; stroke:none;"
     d="M311 147L312 148L311 147z"
     id="path232" />
  <path
     style="fill:#b2d4ae; stroke:none;"
     d="M178.667 148.333L179.333 148.667L178.667 148.333z"
     id="path234" />
  <path
     style="fill:#a7d977; stroke:none;"
     d="M357 148L361 150L361 149L357 148z"
     id="path236" />
  <path
     style="fill:#538e50; stroke:none;"
     d="M409 148L407 155L414 155L412 148L409 148z"
     id="path238" />
  <path
     style="fill:#b2d4ae; stroke:none;"
     d="M413 148L413 152L414 152L413 148M592 148L586 169L587 169L592 149L594 149L596 155L597 155L594 148L592 148M177 149L178 150L177 149z"
     id="path240" />
  <path
     style="fill:#74b56d; stroke:none;"
     d="M310 149L311 150L310 149M592 149L588 166L597 165L599 171L600 171L594 149L592 149z"
     id="path242" />
  <path
     style="fill:#b2d4ae; stroke:none;"
     d="M175 150L176 151L175 150z"
     id="path244" />
  <path
     style="fill:#a7d977; stroke:none;"
     d="M361.667 150.333L362.333 150.667L361.667 150.333z"
     id="path246" />
  <path
     style="fill:#b2d4ae; stroke:none;"
     d="M173.667 151.333L174.333 151.667L173.667 151.333z"
     id="path248" />
  <path
     style="fill:#74b56d; stroke:none;"
     d="M309 151L310 152L309 151z"
     id="path250" />
  <path
     style="fill:#b2d4ae; stroke:none;"
     d="M171.667 152.333L172.333 152.667L171.667 152.333z"
     id="path252" />
  <path
     style="fill:#a7d977; stroke:none;"
     d="M366 152L367 153L366 152z"
     id="path254" />
  <path
     style="fill:#74b56d; stroke:none;"
     d="M413 152L414 153L413 152z"
     id="path256" />
  <path
     style="fill:#b2d4ae; stroke:none;"
     d="M170 153L171 154L170 153z"
     id="path258" />
  <path
     style="fill:#74b56d; stroke:none;"
     d="M308 153L309 154L308 153M370.667 153.333L371.333 153.667L370.667 153.333z"
     id="path260" />
  <path
     style="fill:#b2d4ae; stroke:none;"
     d="M414 153L414 154L417 155L414 153M475 153L473 157L474 157L475 154L476 154L480 164L481 164L475 153z"
     id="path262" />
  <path
     style="fill:#a7d977; stroke:none;"
     d="M590 153L591 154L590 153z"
     id="path264" />
  <path
     style="fill:#b2d4ae; stroke:none;"
     d="M168 154L169 155L168 154z"
     id="path266" />
  <path
     style="fill:#74b56d; stroke:none;"
     d="M372.667 154.333L373.333 154.667L372.667 154.333z"
     id="path268" />
  <path
     style="fill:#a7d977; stroke:none;"
     d="M415 154L416 155L415 154z"
     id="path270" />
  <path
     style="fill:#74b56d; stroke:none;"
     d="M475 154L471 169L470 169L467 162L465 162C461.46 168.648 458.07 178.474 459 186L460 186L462 177C469.387 180.171 473.233 175.087 472 168C483.826 173.778 479.26 159.142 475 154z"
     id="path272" />
  <path
     style="fill:#b2d4ae; stroke:none;"
     d="M166.667 155.333L167.333 155.667L166.667 155.333z"
     id="path274" />
  <path
     style="fill:#74b56d; stroke:none;"
     d="M307 155L306 158L307 155M374.667 155.333L375.333 155.667L374.667 155.333z"
     id="path276" />
  <path
     style="fill:#b2d4ae; stroke:none;"
     d="M417 155L418 156L417 155z"
     id="path278" />
  <path
     style="fill:#a7d977; stroke:none;"
     d="M474 155L475 156L474 155M476 155L477 156L476 155M589 155L590 156L589 155M596 155L597 156L596 155z"
     id="path280" />
  <path
     style="fill:#b2d4ae; stroke:none;"
     d="M165 156L166 157L165 156z"
     id="path282" />
  <path
     style="fill:#74b56d; stroke:none;"
     d="M377.667 156.333L378.333 156.667L377.667 156.333z"
     id="path284" />
  <path
     style="fill:#b2d4ae; stroke:none;"
     d="M418 156L419 157L418 156M597.333 156.667L597.667 157.333L597.333 156.667M163.667 157.333L164.333 157.667L163.667 157.333z"
     id="path286" />
  <path
     style="fill:#74b56d; stroke:none;"
     d="M379.667 157.333L380.333 157.667L379.667 157.333z"
     id="path288" />
  <path
     style="fill:#a7d977; stroke:none;"
     d="M419 157L420 158L419 157z"
     id="path290" />
  <path
     style="fill:#b2d4ae; stroke:none;"
     d="M420 157L421 158L420 157z"
     id="path292" />
  <path
     style="fill:#a7d977; stroke:none;"
     d="M477 157L478 158L477 157z"
     id="path294" />
  <path
     style="fill:#b2d4ae; stroke:none;"
     d="M161.667 158.333L162.333 158.667L161.667 158.333z"
     id="path296" />
  <path
     style="fill:#74b56d; stroke:none;"
     d="M382 158L383 159L382 158z"
     id="path298" />
  <path
     style="fill:#b2d4ae; stroke:none;"
     d="M421 158L422 159L421 158M472 158L473 159L472 158M505 167L506 167C507.792 162.954 509.302 160.312 514 161C509.258 156.647 506.328 162.531 505 167M598 158L598 166L599 166L598 158M160 159L161 160L160 159z"
     id="path300" />
  <path
     style="fill:#74b56d; stroke:none;"
     d="M384 159L385 160L384 159z"
     id="path302" />
  <path
     style="fill:#b2d4ae; stroke:none;"
     d="M422.667 159.333L423.333 159.667L422.667 159.333z"
     id="path304" />
  <path
     style="fill:#a7d977; stroke:none;"
     d="M472 159L473 160L472 159z"
     id="path306" />
  <path
     style="fill:#74b56d; stroke:none;"
     d="M510 159C505.304 167.045 498.916 177.721 497.397 187C496.777 190.79 498.896 194.213 498.185 198C496.787 205.454 492.178 209.854 497 217L498 217C496.124 212.089 495.482 197.636 502.848 195.738C508.377 194.314 512.805 201.607 517 194C525.176 197.439 526.801 209.667 524 217L525 217C530.201 209.292 524.598 200.985 522 193C529.996 187.811 515.638 165.233 512 159L510 159z"
     id="path308" />
  <path
     style="fill:#b2d4ae; stroke:none;"
     d="M158.667 160.333L159.333 160.667L158.667 160.333z"
     id="path310" />
  <path
     style="fill:#74b56d; stroke:none;"
     d="M386.667 160.333L387.333 160.667L386.667 160.333z"
     id="path312" />
  <path
     style="fill:#b2d4ae; stroke:none;"
     d="M424 160L425 161L424 160M464 163L468 163L467 160L464 163M471.333 160.667L471.667 161.333L471.333 160.667z"
     id="path314" />
  <path
     style="fill:#a7d977; stroke:none;"
     d="M598 160L599 161L598 160z"
     id="path316" />
  <path
     style="fill:#b2d4ae; stroke:none;"
     d="M157 161L158 162L157 161M425 161L425 162L428 163L425 161z"
     id="path318" />
  <path
     style="fill:#a7d977; stroke:none;"
     d="M508 161L509 162L508 161M513 161L514 162L513 161z"
     id="path320" />
  <path
     style="fill:#b2d4ae; stroke:none;"
     d="M548 161L546 167L547 167L549 162L551 164L548 161M155 162L156 163L155 162z"
     id="path322" />
  <path
     style="fill:#a7d977; stroke:none;"
     d="M426 162L427 163L426 162z"
     id="path324" />
  <path
     style="fill:#b2d4ae; stroke:none;"
     d="M470 162L468 163L469 166L470 162M514 162L515 165L516 165L514 162z"
     id="path326" />
  <path
     style="fill:#74b56d; stroke:none;"
     d="M549 162C544.988 169.526 541.798 179.409 543 188L544 188L546 177L554 178L556 186L557 186C556.295 177.9 555.286 167.742 549 162z"
     id="path328" />
  <path
     style="fill:#a7d977; stroke:none;"
     d="M550 162L551 163L550 162z"
     id="path330" />
  <path
     style="fill:#b2d4ae; stroke:none;"
     d="M154 163L155 164L154 163M428 163L428 164L431 165L428 163M463.333 163.667L463.667 164.333L463.333 163.667z"
     id="path332" />
  <path
     style="fill:#a7d977; stroke:none;"
     d="M507 163L508 164L507 163M514 163L515 164L514 163M598 163L599 164L598 163z"
     id="path334" />
  <path
     style="fill:#b2d4ae; stroke:none;"
     d="M152 164L153 165L152 164z"
     id="path336" />
  <path
     style="fill:#a7d977; stroke:none;"
     d="M429 164L430 165L429 164M470 164L471 165L470 164z"
     id="path338" />
  <path
     style="fill:#b2d4ae; stroke:none;"
     d="M151 165L152 166L151 165M431.667 165.333L432.333 165.667L431.667 165.333M481 165L482 166L481 165z"
     id="path340" />
  <path
     style="fill:#a7d977; stroke:none;"
     d="M506 165L507 166L506 165M515 165L516 166L515 165z"
     id="path342" />
  <path
     style="fill:#b2d4ae; stroke:none;"
     d="M552 165L553 166L552 165z"
     id="path344" />
  <path
     style="fill:#538e50; stroke:none;"
     d="M589 165C587.26 168.765 583.502 179.623 586.068 183.415C588.559 187.097 598.589 187.233 600.303 182.687C601.971 178.263 598.884 169.077 597 165L589 165z"
     id="path346" />
  <path
     style="fill:#b2d4ae; stroke:none;"
     d="M149.667 166.333L150.333 166.667L149.667 166.333M433 166L434 167L433 166M462 166L463 167L462 166z"
     id="path348" />
  <path
     style="fill:#a7d977; stroke:none;"
     d="M469 166L471 169L469 166z"
     id="path350" />
  <path
     style="fill:#b2d4ae; stroke:none;"
     d="M516.333 166.667L516.667 167.333L516.333 166.667z"
     id="path352" />
  <path
     style="fill:#a7d977; stroke:none;"
     d="M552 166L553 167L552 166z"
     id="path354" />
  <path
     style="fill:#b2d4ae; stroke:none;"
     d="M148 167L149 168L148 167M434.667 167.333L435.333 167.667L434.667 167.333z"
     id="path356" />
  <path
     style="fill:#a7d977; stroke:none;"
     d="M462 167L463 168L462 167z"
     id="path358" />
  <path
     style="fill:#b2d4ae; stroke:none;"
     d="M480 167L480 170L481 170L480 167z"
     id="path360" />
  <path
     style="fill:#a7d977; stroke:none;"
     d="M505 167L506 168L505 167M546 167L547 168L546 167z"
     id="path362" />
  <path
     style="fill:#b2d4ae; stroke:none;"
     d="M553.333 167.667L553.667 168.333L553.333 167.667z"
     id="path364" />
  <path
     style="fill:#74b56d; stroke:none;"
     d="M587.333 167.667L587.667 168.333L587.333 167.667z"
     id="path366" />
  <path
     style="fill:#b2d4ae; stroke:none;"
     d="M599.333 167.667L599.667 168.333L599.333 167.667M146 168L147 169L146 168M436 168L437 169L436 168M461.333 168.667L461.667 169.333L461.333 168.667z"
     id="path368" />
  <path
     style="fill:#538e50; stroke:none;"
     d="M472 168C472.659 175.016 469.176 178.876 462 177C460.665 180.564 456.975 191.008 459.121 194.415C461.344 197.943 470.648 197.921 472.879 194.412C474.386 192.042 472.377 187.566 472 185C484.826 191.294 481.377 176.414 480 169L472 168z"
     id="path370" />
  <path
     style="fill:#b2d4ae; stroke:none;"
     d="M504 168L505 169L504 168M517.333 168.667L517.667 169.333L517.333 168.667M545.333 168.667L545.667 169.333L545.333 168.667M145 169L146 170L145 169M437 169L438 170L437 169z"
     id="path372" />
  <path
     style="fill:#a7d977; stroke:none;"
     d="M504 169L505 170L504 169z"
     id="path374" />
  <path
     style="fill:#b2d4ae; stroke:none;"
     d="M554.333 169.667L554.667 170.333L554.333 169.667z"
     id="path376" />
  <path
     style="fill:#74b56d; stroke:none;"
     d="M586.333 169.667L586.667 170.333L586.333 169.667z"
     id="path378" />
  <path
     style="fill:#b2d4ae; stroke:none;"
     d="M143 170L144 171L143 170z"
     id="path380" />
  <path
     style="fill:#74b56d; stroke:none;"
     d="M196 170L190 193L191 193L193 185L201 185L202 194L203 194C204.506 185.943 200.551 177.495 198 170L196 170z"
     id="path382" />
  <path
     style="fill:#b2d4ae; stroke:none;"
     d="M439 170L440 171L439 170M460.333 170.667L460.667 171.333L460.333 170.667z"
     id="path384" />
  <path
     style="fill:#74b56d; stroke:none;"
     d="M480 170L481 176L482 176L480 170z"
     id="path386" />
  <path
     style="fill:#b2d4ae; stroke:none;"
     d="M503.333 170.667L503.667 171.333L503.333 170.667M518.333 170.667L518.667 171.333L518.333 170.667M544.333 170.667L544.667 171.333L544.333 170.667M585.333 170.667L585.667 171.333L585.333 170.667M600 170L599 175L600 175L600 170M142 171L143 172L142 171M440 171L441 172L440 171M481 171L482 172L481 171M140.667 172.333L141.333 172.667L140.667 172.333z"
     id="path388" />
  <path
     style="fill:#a7d977; stroke:none;"
     d="M441 172L442 173L441 172z"
     id="path390" />
  <path
     style="fill:#b2d4ae; stroke:none;"
     d="M442 172L443 173L442 172z"
     id="path392" />
  <path
     style="fill:#a7d977; stroke:none;"
     d="M460 172L461 173L460 172M518 172L519 173L518 172z"
     id="path394" />
  <path
     style="fill:#b2d4ae; stroke:none;"
     d="M555 172L555 173L585 174L585 173L555 172z"
     id="path396" />
  <path
     style="fill:#74b56d; stroke:none;"
     d="M585 172L586 177L587 177L585 172z"
     id="path398" />
  <path
     style="fill:#b2d4ae; stroke:none;"
     d="M139 173L140 174L139 173M443 173L444 174L443 173M459.333 173.667L459.667 174.333L459.333 173.667M502 173L503 174L502 173M519.333 173.667L519.667 174.333L519.333 173.667M543 173L541 175L541 176L543 173z"
     id="path400" />
  <path
     style="fill:#a7d977; stroke:none;"
     d="M555 173L556 174L555 173M585 173C577.754 175.142 562.309 170.326 556.618 175.028C549.898 180.58 564.888 195.434 551 197L551 201L548 201L548 197C538.749 195.525 542.942 182.381 545 176L544 175L521 178C523.016 183.197 526.588 188.45 522 193C524.291 202.901 527.806 208.1 525 218C548.966 211.458 570.797 199.578 596 197.17C608.995 195.928 617.131 201.911 629 203.686C641.009 205.482 652.52 201.285 665 204.478C692.501 211.515 714.56 231.354 738 246C732.739 235.334 718.457 226.368 709 219.579C678.043 197.357 638.379 180.033 600 177C602.186 185.334 595.731 184.317 593 191L592 191L591 186C582.863 184.702 587.253 178.524 585 173z"
     id="path402" />
  <path
     style="fill:#74b56d; stroke:none;"
     d="M599 173L600 174L599 173z"
     id="path404" />
  <path
     style="fill:#b2d4ae; stroke:none;"
     d="M138 174L139 175L138 174M444 174L445 175L444 174M482 174L483 175L482 174z"
     id="path406" />
  <path
     style="fill:#a7d977; stroke:none;"
     d="M502 174L503 175L502 174z"
     id="path408" />
  <path
     style="fill:#b2d4ae; stroke:none;"
     d="M136.667 175.333L137.333 175.667L136.667 175.333M445 175L446 176L445 175M460 175L461 176L460 175M501.333 175.667L501.667 176.333L501.333 175.667M520.333 175.667L520.667 176.333L520.333 175.667z"
     id="path410" />
  <path
     style="fill:#74b56d; stroke:none;"
     d="M599.333 175.667L599.667 176.333L599.333 175.667z"
     id="path412" />
  <path
     style="fill:#b2d4ae; stroke:none;"
     d="M135 176L136 177L135 176M446 176L447 177L446 176M481 176C483.14 182.447 494.367 180 500 180L500 179C493.731 179 485.85 180.629 481 176M532 176L532 177L540 177L532 176M600 176L600 177L603 177L600 176M133.667 177.333L134.333 177.667L133.667 177.333M447 177L447 178L451 178L447 177M460 177L461 178L460 177M500.333 177.667L500.667 178.333L500.333 177.667M521 177L521 178L532 178L521 177z"
     id="path414" />
  <path
     style="fill:#538e50; stroke:none;"
     d="M546 177C539.011 190.402 542.659 197.387 557 196L554 178L546 177z"
     id="path416" />
  <path
     style="fill:#b2d4ae; stroke:none;"
     d="M604 177L604 178L609 178L604 177M132 178L133 179L132 178M453 178L453 179L460 179L453 178z"
     id="path418" />
  <path
     style="fill:#74b56d; stroke:none;"
     d="M600.333 178.667L600.667 179.333L600.333 178.667z"
     id="path420" />
  <path
     style="fill:#b2d4ae; stroke:none;"
     d="M610 178L610 179L614 179L610 178M131 179L132 180L131 179z"
     id="path422" />
  <path
     style="fill:#74b56d; stroke:none;"
     d="M430 179C424.87 186.211 418.7 198.149 417.422 207C416.876 210.784 419.008 214.194 418.171 218C416.875 223.896 410.783 231.017 418 235C415.817 230.618 416.546 218.987 421.563 216.045C424.051 214.586 427.438 217.491 430 217.715C432.917 217.969 436.041 215.172 438.772 216.188C444.381 218.272 444.992 230.349 444 235C449.579 229.514 443.787 223.397 442.889 217C441.097 204.236 441.351 188.73 430 179M481 179L482 180L481 179M585 179L586 180L585 179z"
     id="path424" />
  <path
     style="fill:#b2d4ae; stroke:none;"
     d="M615 179L615 180L619 180L615 179M128 182L131 180L128 182M621.667 180.333L622.333 180.667L621.667 180.333z"
     id="path426" />
  <path
     style="fill:#74b56d; stroke:none;"
     d="M482.333 181.667L482.667 182.333L482.333 181.667z"
     id="path428" />
  <path
     style="fill:#b2d4ae; stroke:none;"
     d="M624 181L624 182L627 182L624 181M127 182L128 183L127 182z"
     id="path430" />
  <path
     style="fill:#74b56d; stroke:none;"
     d="M601 182L602 183L601 182z"
     id="path432" />
  <path
     style="fill:#b2d4ae; stroke:none;"
     d="M629.667 182.333L630.333 182.667L629.667 182.333M126 183L127 184L126 183M632 183L632 184L635 184L632 183M124.667 184.333L125.333 184.667L124.667 184.333z"
     id="path434" />
  <path
     style="fill:#74b56d; stroke:none;"
     d="M482 184L483 185L482 184M585 184L586 185L585 184M600 184L601 185L600 184z"
     id="path436" />
  <path
     style="fill:#b2d4ae; stroke:none;"
     d="M636.667 184.333L637.333 184.667L636.667 184.333M123 185L124 186L123 185z"
     id="path438" />
  <path
     style="fill:#538e50; stroke:none;"
     d="M193 185L190 202L204 202L201 185L193 185z"
     id="path440" />
  <path
     style="fill:#74b56d; stroke:none;"
     d="M472 185L472 189L473 189L472 185M586 185L586 186L591 186L586 185M595 185L596 186L595 185M597 185L597 186L600 186L597 185z"
     id="path442" />
  <path
     style="fill:#b2d4ae;stroke:none"
     d="m 610.62058,174.20065 v 1 h 3 l -3,-1 m -516.999998,1 1,1 z"
     id="path444" />
  <path
     style="fill:#74b56d; stroke:none;"
     d="M477 186L478 187L477 186M591 186L592 191L593 191L591 186M594 186L595 187L594 186z"
     id="path446" />
  <path
     style="fill:#b2d4ae; stroke:none;"
     d="M642 186L642 187L645 187L642 186M119 189L122 187L119 189z"
     id="path448" />
  <path
     style="fill:#74b56d; stroke:none;"
     d="M459.333 187.667L459.667 188.333L459.333 187.667M474 187L475 191L477 187L474 187z"
     id="path450" />
  <path
     style="fill:#b2d4ae; stroke:none;"
     d="M645 187L645 188L648 188L645 187M649.667 188.333L650.333 188.667L649.667 188.333M118 189L119 190L118 189z"
     id="path452" />
  <path
     style="fill:#74b56d; stroke:none;"
     d="M556 189L557 190L556 189z"
     id="path454" />
  <path
     style="fill:#b2d4ae; stroke:none;"
     d="M651.667 189.333L652.333 189.667L651.667 189.333M117 190L118 191L117 190z"
     id="path456" />
  <path
     style="fill:#74b56d; stroke:none;"
     d="M542.333 190.667L542.667 191.333L542.333 190.667z"
     id="path458" />
  <path
     style="fill:#b2d4ae; stroke:none;"
     d="M654.667 190.333L655.333 190.667L654.667 190.333M116 191L117 192L116 191z"
     id="path460" />
  <path
     style="fill:#74b56d; stroke:none;"
     d="M458 191L459 192L458 191M473 191L474 192L473 191z"
     id="path462" />
  <path
     style="fill:#b2d4ae; stroke:none;"
     d="M656 191L656 192L659 192L656 191M114 192L115 193L114 192z"
     id="path464" />
  <path
     style="fill:#74b56d; stroke:none;"
     d="M557 192L557 196L558 196L557 192z"
     id="path466" />
  <path
     style="fill:#b2d4ae; stroke:none;"
     d="M659.667 192.333L660.333 192.667L659.667 192.333M113 193L114 194L113 193M661 193L661 194L664 194L661 193M112 194L113 195L112 194z"
     id="path468" />
  <path
     style="fill:#74b56d; stroke:none;"
     d="M190 194L190 197L191 197L190 194z"
     id="path470" />
  <path
     style="fill:#538e50; stroke:none;"
     d="M511 242L510 249L511 249C511.933 236.732 523.653 243.993 527.968 236.772C530.5 232.534 526.93 226.242 525.889 222C523.829 213.607 528.955 197.345 517 194C511.407 200.709 505.115 192.082 500.843 196.492C493.085 204.499 498.298 214.955 495.842 224C494.758 227.992 491.296 233.786 494.604 237.562C497.103 240.415 507.132 241.266 511 242z"
     id="path472" />
  <path
     style="fill:#b2d4ae; stroke:none;"
     d="M664.667 194.333L665.333 194.667L664.667 194.333M111 195L112 196L111 195z"
     id="path474" />
  <path
     style="fill:#74b56d; stroke:none;"
     d="M458 195L459 196L458 195M473 195L474 196L473 195M542 195L543 196L542 195z"
     id="path476" />
  <path
     style="fill:#b2d4ae; stroke:none;"
     d="M666.667 195.333L667.333 195.667L666.667 195.333M110 196L111 197L110 196z"
     id="path478" />
  <path
     style="fill:#74b56d; stroke:none;"
     d="M157 196C152.928 203.155 148.941 213.761 151 222L152 222L153 213L162 212L164 222L165 222C165.755 213.66 163.355 201.804 157 196M203.333 196.667L203.667 197.333L203.333 196.667M459 196L459 197L464 197L459 196M468 196L468 197L473 197L468 196M543 196L543 197L547 197L543 196M552 196L552 197L556 197L552 196z"
     id="path480" />
  <path
     style="fill:#b2d4ae; stroke:none;"
     d="M669 196L669 197L673 198L673 197L669 196M107 199L110 197L107 199z"
     id="path482" />
  <path
     style="fill:#74b56d; stroke:none;"
     d="M464 197L465 198L464 197M466 197L465 201L468 197L466 197M548 197L548 201L551 201L551 197L548 197M525 218C525.685 223.081 530.771 232.255 527.382 236.768C522.245 243.608 511.41 236.483 511 249L510 249L511 242C504.139 239.89 494.302 240.36 493 232C481.826 236.335 471.002 241.537 460 246.281C456.436 247.818 450.932 251.58 448 248L447 248C447.326 251.193 448.024 254.988 444.768 256.968C440.153 259.774 431.277 259.158 425.961 260.06C416.909 261.597 408.202 265.545 399 267.08C360.147 273.563 320.139 273.897 281 270.17C267.351 268.87 250.773 270.414 238 265C239.102 268.389 241.799 273.359 239.932 276.852C236.835 282.648 222.114 283.089 218 279C204.9 281.386 208.153 271.926 210 263C155.783 262.551 97.5552 243.238 47 274.062C31.0503 283.786 10.0136 298.436 10 319L809 319C799.568 297.837 774.971 277.988 758 262.834C732.223 239.817 699.576 212.367 665 204.236C652.81 201.37 641.894 204.723 630 203.556C625.767 203.14 622.039 200.02 618 198.774C610.794 196.55 602.468 196.456 595 197.17C570.705 199.491 547.535 209.307 525 218M189 198L189 202L190 202L189 198M339.09 199.067C321.167 207.347 336.731 227.839 351 221.441C366.985 214.275 350.96 193.583 339.09 199.067z"
     id="path484" />
  <path
     style="fill:#b2d4ae; stroke:none;"
     d="M673.667 198.333L674.333 198.667L673.667 198.333M106 199L107 200L106 199M675.667 199.333L676.333 199.667L675.667 199.333M105 200L106 201L105 200M677.667 200.333L678.333 200.667L677.667 200.333M104 201L105 202L104 201M679.667 201.333L680.333 201.667L679.667 201.333M103 202L104 203L103 202z"
     id="path486" />
  <path
     style="fill:#74b56d; stroke:none;"
     d="M190 202L190 203L195 203L190 202M199 202L199 203L204 203L199 202z"
     id="path488" />
  <path
     style="fill:#b2d4ae; stroke:none;"
     d="M681.667 202.333L682.333 202.667L681.667 202.333M102 203L103 204L102 203z"
     id="path490" />
  <path
     style="fill:#74b56d; stroke:none;"
     d="M195 203L195 207L199 203L195 203z"
     id="path492" />
  <path
     style="fill:#b2d4ae; stroke:none;"
     d="M683 203L684 204L683 203M101 204L102 205L101 204z"
     id="path494" />
  <path
     style="fill:#74b56d; stroke:none;"
     d="M210 262L211 262C210.752 253.385 209.082 242.336 218 237C220.885 241.938 226.899 241.675 230 237C235.803 240.76 239.13 250.416 237 257C242.368 253.506 237.687 246.855 236.367 242C235.222 237.793 237.323 234.141 236.592 230C235.629 224.547 232.271 219.113 230.201 214C229.138 211.375 227.921 206.326 224.829 205.346C220.148 203.862 217.119 215.023 215.85 218C210.281 231.073 208.315 248.172 210 262z"
     id="path496" />
  <path
     style="fill:#b2d4ae; stroke:none;"
     d="M685 204L686 205L685 204M100 205L101 206L100 205M686.667 205.333L687.333 205.667L686.667 205.333M96 209L100 206L96 209M688.667 206.333L689.333 206.667L688.667 206.333M690.667 207.333L691.333 207.667L690.667 207.333M692 208L693 209L692 208M95 209L96 210L95 209M693.667 209.333L694.333 209.667L693.667 209.333M94 210L95 211L94 210M695 210L696 211L695 210M93 211L94 212L93 211M697 211L698 212L697 211M92 212L93 213L92 212z"
     id="path498" />
  <path
     style="fill:#538e50; stroke:none;"
     d="M161 212L153 213L150 232C154.434 232.537 159.49 234.659 163.667 231.816C167.798 229.004 163.695 215.099 161 212z"
     id="path500" />
  <path
     style="fill:#b2d4ae; stroke:none;"
     d="M698.667 212.333L699.333 212.667L698.667 212.333M91 213L92 214L91 213M700 213L701 214L700 213M90 214L91 215L90 214z"
     id="path502" />
  <path
     style="fill:#538e50; stroke:none;"
     d="M422.303 215.045C414.218 216.741 417.488 234.152 416.556 239.039C415.683 243.612 412.077 250.207 414.407 254.772C418.187 262.177 437.533 259.461 443.895 257.679C451.788 255.469 444.793 243.059 444.343 238C443.861 232.57 446.606 217.893 438.772 215.341C435.819 214.379 433.091 217.748 430 217.424C427.39 217.15 424.997 214.48 422.303 215.045z"
     id="path504" />
  <path
     style="fill:#b2d4ae; stroke:none;"
     d="M701.667 214.333L702.333 214.667L701.667 214.333M89 215L90 216L89 215M703 215L704 216L703 215M88 216L89 217L88 216M704.667 216.333L705.333 216.667L704.667 216.333M87 217L88 218L87 217M706 217L707 218L706 217M86 218L87 219L86 218z"
     id="path506" />
  <path
     style="fill:#74b56d; stroke:none;"
     d="M496 218L496 222L497 222L496 218z"
     id="path508" />
  <path
     style="fill:#b2d4ae; stroke:none;"
     d="M707 218L708 219L707 218M85 219L86 220L85 219M708.667 219.333L709.333 219.667L708.667 219.333M84 220L85 221L84 220M710 220L711 221L710 220M83 221L84 222L83 221M711.667 221.333L712.333 221.667L711.667 221.333M82 222L83 223L82 222M713 222L714 223L713 222M81.3333 223.667L81.6667 224.333L81.3333 223.667z"
     id="path510" />
  <path
     style="fill:#74b56d; stroke:none;"
     d="M164.333 223.667L164.667 224.333L164.333 223.667M495 223L495 226L496 226L495 223z"
     id="path512" />
  <path
     style="fill:#b2d4ae; stroke:none;"
     d="M714 223L715 224L714 223M715 224L718 226L715 224M80 225L81 226L80 225z"
     id="path514" />
  <path
     style="fill:#74b56d; stroke:none;"
     d="M150.333 225.667L150.667 226.333L150.333 225.667z"
     id="path516" />
  <path
     style="fill:#b2d4ae; stroke:none;"
     d="M79 226L80 227L79 226M718 226L719 227L718 226M78 227L79 228L78 227z"
     id="path518" />
  <path
     style="fill:#74b56d; stroke:none;"
     d="M165 227L166 228L165 227M494.333 227.667L494.667 228.333L494.333 227.667z"
     id="path520" />
  <path
     style="fill:#b2d4ae; stroke:none;"
     d="M719 227L720 228L719 227M77 228L78 229L77 228z"
     id="path522" />
  <path
     style="fill:#74b56d; stroke:none;"
     d="M149 228L149 232L150 232L149 228z"
     id="path524" />
  <path
     style="fill:#b2d4ae; stroke:none;"
     d="M720 228L721 229L720 228M76 229L77 230L76 229M721.667 229.333L722.333 229.667L721.667 229.333M75 230L76 231L75 230z"
     id="path526" />
  <path
     style="fill:#74b56d; stroke:none;"
     d="M493 230L494 231L493 230z"
     id="path528" />
  <path
     style="fill:#b2d4ae; stroke:none;"
     d="M723 230L724 231L723 230M74 231L75 232L74 231z"
     id="path530" />
  <path
     style="fill:#74b56d; stroke:none;"
     d="M165 231L166 232L165 231z"
     id="path532" />
  <path
     style="fill:#b2d4ae; stroke:none;"
     d="M724 231L725 232L724 231M73.3333 232.667L73.6667 233.333L73.3333 232.667z"
     id="path534" />
  <path
     style="fill:#74b56d; stroke:none;"
     d="M150 232L150 233L155 233L150 232M160 232L160 233L163 233L160 232M164 232L165 233L164 232z"
     id="path536" />
  <path
     style="fill:#b2d4ae; stroke:none;"
     d="M725 232L726 233L725 232z"
     id="path538" />
  <path
     style="fill:#74b56d; stroke:none;"
     d="M155 233L156 234L155 233M159 233L160 234L159 233z"
     id="path540" />
  <path
     style="fill:#b2d4ae; stroke:none;"
     d="M726 233L727 234L726 233M72 234L73 235L72 234z"
     id="path542" />
  <path
     style="fill:#74b56d; stroke:none;"
     d="M156 234L157 238L158 238L159 234L156 234z"
     id="path544" />
  <path
     style="fill:#b2d4ae; stroke:none;"
     d="M727 234L728 235L727 234M71 235L72 236L71 235M728 235L729 236L728 235M70 236L71 237L70 236M729 236L734 240L729 236M69 237L70 238L69 237z"
     id="path546" />
  <path
     style="fill:#538e50; stroke:none;"
     d="M218 279C221.299 283.972 236.741 282.641 239.968 277.682C242.468 273.841 239.143 267.864 238.157 264C235.972 255.445 240.665 241.706 230 237C225.953 241.035 221.866 241.366 218 237C208.813 240.602 210.929 252.562 210.546 260C210.09 268.869 201.875 282.827 218 279z"
     id="path548" />
  <path
     style="fill:#74b56d; stroke:none;"
     d="M444 237L444 240L445 240L444 237z"
     id="path550" />
  <path
     style="fill:#b2d4ae; stroke:none;"
     d="M68.3333 238.667L68.6667 239.333L68.3333 238.667z"
     id="path552" />
  <path
     style="fill:#74b56d; stroke:none;"
     d="M416.333 238.667L416.667 239.333L416.333 238.667z"
     id="path554" />
  <path
     style="fill:#b2d4ae; stroke:none;"
     d="M67 240L68 241L67 240M734 240L734 242L736 242L734 240M66 241L67 242L66 241z"
     id="path556" />
  <path
     style="fill:#74b56d; stroke:none;"
     d="M445 241L445 244L446 244L445 241z"
     id="path558" />
  <path
     style="fill:#b2d4ae; stroke:none;"
     d="M65 242L64 245L65 242z"
     id="path560" />
  <path
     style="fill:#74b56d; stroke:none;"
     d="M415.333 242.667L415.667 243.333L415.333 242.667z"
     id="path562" />
  <path
     style="fill:#b2d4ae; stroke:none;"
     d="M736 242L736 244L738 244L736 242M738 244L744 250L738 244M63 245L64 246L63 245z"
     id="path564" />
  <path
     style="fill:#74b56d; stroke:none;"
     d="M414.333 245.667L414.667 246.333L414.333 245.667M446.333 245.667L446.667 246.333L446.333 245.667z"
     id="path566" />
  <path
     style="fill:#b2d4ae; stroke:none;"
     d="M62 246L63 247L62 246M61.3333 247.667L61.6667 248.333L61.3333 247.667z"
     id="path568" />
  <path
     style="fill:#74b56d; stroke:none;"
     d="M413 248L413 252L414 252L413 248z"
     id="path570" />
  <path
     style="fill:#a7d977; stroke:none;"
     d="M741 248L742 249L741 248z"
     id="path572" />
  <path
     style="fill:#b2d4ae; stroke:none;"
     d="M60 249L61 250L60 249z"
     id="path574" />
  <path
     style="fill:#a7d977; stroke:none;"
     d="M742 249L743 250L742 249z"
     id="path576" />
  <path
     style="fill:#b2d4ae; stroke:none;"
     d="M59.3333 250.667L59.6667 251.333L59.3333 250.667M744 250L745 251L744 250M745 251L746 252L745 251M58 252L59 253L58 252M746 252L747 253L746 252M57.3333 253.667L57.6667 254.333L57.3333 253.667z"
     id="path578" />
  <path
     style="fill:#74b56d; stroke:none;"
     d="M413 253L413 256L414 256L413 253z"
     id="path580" />
  <path
     style="fill:#b2d4ae; stroke:none;"
     d="M747 253L748 254L747 253M748 254L749 255L748 254M56 255L57 256L56 255M749 255L750 256L749 255M55.3333 256.667L55.6667 257.333L55.3333 256.667z"
     id="path582" />
  <path
     style="fill:#74b56d; stroke:none;"
     d="M414 256L415 257L414 256z"
     id="path584" />
  <path
     style="fill:#b2d4ae; stroke:none;"
     d="M750.667 256.333L751.333 256.667L750.667 256.333z"
     id="path586" />
  <path
     style="fill:#74b56d; stroke:none;"
     d="M415.667 257.333L416.333 257.667L415.667 257.333M421 257L421 258L425 258L421 257z"
     id="path588" />
  <path
     style="fill:#b2d4ae; stroke:none;"
     d="M752 257L753 258L752 257M54 258L55 259L54 258M753 258L754 259L753 258M53.3333 259.667L53.6667 260.333L53.3333 259.667M754 259L755 260L754 259z"
     id="path590" />
  <path
     style="fill:#74b56d; stroke:none;"
     d="M237.333 260.667L237.667 261.333L237.333 260.667z"
     id="path592" />
  <path
     style="fill:#b2d4ae; stroke:none;"
     d="M755 260L756 261L755 260M52 261L53 262L52 261M756 261L757 262L756 261M51.3333 262.667L51.6667 263.333L51.3333 262.667M757 262L758 263L757 262M758 263L759 264L758 263M50.3333 264.667L50.6667 265.333L50.3333 264.667M759.667 264.333L760.333 264.667L759.667 264.333M761 265L762 266L761 265M49.3333 266.667L49.6667 267.333L49.3333 266.667M762 266L763 267L762 266M763 267L764 268L763 267M48 268L49 269L48 268M764 268L765 269L764 268M47.3333 269.667L47.6667 270.333L47.3333 269.667M765 269L766 270L765 269M766 270L767 271L766 270M46.3333 271.667L46.6667 272.333L46.3333 271.667M767 271L768 272L767 271M768 272L769 273L768 272M45.3333 273.667L45.6667 274.333L45.3333 273.667M769 273L770 274L769 273M770 274L771 275L770 274M42 277L45 276L42 277M771 275L772 276L771 275z"
     id="path594" />
  <path
     style="fill:#a7d977; stroke:none;"
     d="M43 276L44 277L43 276z"
     id="path596" />
  <path
     style="fill:#b2d4ae; stroke:none;"
     d="M772 276L773 277L772 276M40.6667 277.333L41.3333 277.667L40.6667 277.333M773 277L774 278L773 277M39 278L40 279L39 278M774 278L775 279L774 278M37 279L38 280L37 279z"
     id="path598" />
  <path
     style="fill:#a7d977; stroke:none;"
     d="M38 279L39 280L38 279z"
     id="path600" />
  <path
     style="fill:#b2d4ae; stroke:none;"
     d="M775 279L776 280L775 279M36 280L37 281L36 280M776 280L777 281L776 280M33 283L36 282L33 283M777 281L778 282L777 281z"
     id="path602" />
  <path
     style="fill:#a7d977; stroke:none;"
     d="M34 282L35 283L34 282z"
     id="path604" />
  <path
     style="fill:#b2d4ae; stroke:none;"
     d="M778 282L779 283L778 282M32 283L33 284L32 283M779 283L780 284L779 283M31 284L32 285L31 284M780 284L781 285L780 284M27 288L31 286L27 288z"
     id="path606" />
  <path
     style="fill:#538e50; stroke:none;"
     d="M223 285L223 289L224 289L223 285z"
     id="path608" />
  <path
     style="fill:#b2d4ae; stroke:none;"
     d="M781 285L782 286L781 285z"
     id="path610" />
  <path
     style="fill:#a7d977; stroke:none;"
     d="M29 286L30 287L29 286z"
     id="path612" />
  <path
     style="fill:#b2d4ae; stroke:none;"
     d="M782 286L783 287L782 286z"
     id="path614" />
  <path
     style="fill:#a7d977; stroke:none;"
     d="M28 287L29 288L28 287z"
     id="path616" />
  <path
     style="fill:#b2d4ae; stroke:none;"
     d="M783 287L784 288L783 287M26 288L27 289L26 288M784 288L785 289L784 288M25 289L26 290L25 289M785 289L786 290L785 289M24 290L25 291L24 290M786 290L787 291L786 290M23 291L24 292L23 291M787 291L788 292L787 291M22 292L23 293L22 292M788.333 292.667L788.667 293.333L788.333 292.667M21 293L19 297L20 297L21 293z"
     id="path618" />
  <path
     style="fill:#a7d977; stroke:none;"
     d="M21 294L22 295L21 294z"
     id="path620" />
  <path
     style="fill:#b2d4ae; stroke:none;"
     d="M789 294L790 295L789 294z"
     id="path622" />
  <path
     style="fill:#a7d977; stroke:none;"
     d="M20 295L21 296L20 295z"
     id="path624" />
  <path
     style="fill:#b2d4ae; stroke:none;"
     d="M790 295L791 296L790 295M791 296L792 297L791 296M18 297L19 298L18 297M792 297L793 298L792 297M17 298L18 299L17 298M793 298L794 299L793 298M16 299L15 302L16 302L16 299M794 299L795 300L794 299z"
     id="path626" />
  <path
     style="fill:#a7d977; stroke:none;"
     d="M16 300L17 301L16 300z"
     id="path628" />
  <path
     style="fill:#b2d4ae; stroke:none;"
     d="M795 300L796 301L795 300M796.333 301.667L796.667 302.333L796.333 301.667M14 302L13 305L14 305L14 302z"
     id="path630" />
  <path
     style="fill:#a7d977; stroke:none;"
     d="M14 303L15 304L14 303z"
     id="path632" />
  <path
     style="fill:#b2d4ae; stroke:none;"
     d="M797 303L798 304L797 303M798 304L799 305L798 304M12 305L13 306L12 305M799 305L800 306L799 305z"
     id="path634" />
  <path
     style="fill:#a7d977; stroke:none;"
     d="M12 306L13 307L12 306z"
     id="path636" />
  <path
     style="fill:#b2d4ae; stroke:none;"
     d="M800 306L801 307L800 306M11 307L12 308L11 307M801 308L802 309L801 308M10 309L11 310L10 309M802 309L803 310L802 309M803 310L804 311L803 310M804 311L805 312L804 311M805.333 312.667L805.667 313.333L805.333 312.667M806 314L807 315L806 314M807 315L808 316L807 315M808 316L809 317L808 316M809 318L810 319L809 318z"
     id="path638" />
</svg>
