<?xml version="1.0" encoding="UTF-8" standalone="no"?>
<!-- Created with Inkscape (http://www.inkscape.org/) -->

<svg
   width="147.55193"
   height="98.704102"
   id="svg6011"
   version="1.1"
   inkscape:version="1.2 (dc2aeda, 2022-05-15)"
   sodipodi:docname="Nuage_cloud.svg"
   xmlns:inkscape="http://www.inkscape.org/namespaces/inkscape"
   xmlns:sodipodi="http://sodipodi.sourceforge.net/DTD/sodipodi-0.dtd"
   xmlns:xlink="http://www.w3.org/1999/xlink"
   xmlns="http://www.w3.org/2000/svg"
   xmlns:svg="http://www.w3.org/2000/svg"
   xmlns:rdf="http://www.w3.org/1999/02/22-rdf-syntax-ns#"
   xmlns:cc="http://creativecommons.org/ns#"
   xmlns:dc="http://purl.org/dc/elements/1.1/">
  <title
     id="title6047">nuage</title>
  <defs
     id="defs6013">
    <linearGradient
       id="linearGradient13292"
       inkscape:swatch="solid">
      <stop
         style="stop-color:#e3dedb;stop-opacity:1;"
         offset="0"
         id="stop13290" />
    </linearGradient>
    <linearGradient
       id="linearGradient11324"
       inkscape:swatch="solid">
      <stop
         style="stop-color:#e3dedb;stop-opacity:1;"
         offset="0"
         id="stop11322" />
    </linearGradient>
    <linearGradient
       inkscape:collect="always"
       xlink:href="#linearGradient13292"
       id="linearGradient13321"
       gradientUnits="userSpaceOnUse"
       x1="3.085667"
       y1="49.096686"
       x2="143.86526"
       y2="49.096686"
       gradientTransform="translate(167.05466,379.59924)" />
  </defs>
  <sodipodi:namedview
     id="base"
     pagecolor="#ffffff"
     bordercolor="#666666"
     borderopacity="1.0"
     inkscape:pageopacity="0.0"
     inkscape:pageshadow="2"
     inkscape:zoom="0.7"
     inkscape:cx="437.85714"
     inkscape:cy="257.85714"
     inkscape:document-units="px"
     inkscape:current-layer="layer1"
     showgrid="false"
     inkscape:window-width="1848"
     inkscape:window-height="1009"
     inkscape:window-x="0"
     inkscape:window-y="34"
     inkscape:window-maximized="1"
     fit-margin-top="0"
     fit-margin-left="0"
     fit-margin-right="0"
     fit-margin-bottom="0"
     inkscape:showpageshadow="0"
     inkscape:pagecheckerboard="0"
     inkscape:deskcolor="#d1d1d1" />
  <metadata
     id="metadata6016">
    <rdf:RDF>
      <cc:Work
         rdf:about="">
        <dc:format>image/svg+xml</dc:format>
        <dc:type
           rdf:resource="http://purl.org/dc/dcmitype/StillImage" />
        <dc:title>nuage</dc:title>
        <cc:license
           rdf:resource="http://creativecommons.org/licenses/publicdomain/" />
        <dc:date>2011-02-06</dc:date>
        <dc:creator>
          <cc:Agent>
            <dc:title>lmproulx</dc:title>
          </cc:Agent>
        </dc:creator>
      </cc:Work>
      <cc:License
         rdf:about="http://creativecommons.org/licenses/publicdomain/">
        <cc:permits
           rdf:resource="http://creativecommons.org/ns#Reproduction" />
        <cc:permits
           rdf:resource="http://creativecommons.org/ns#Distribution" />
        <cc:permits
           rdf:resource="http://creativecommons.org/ns#DerivativeWorks" />
      </cc:License>
    </rdf:RDF>
  </metadata>
  <g
     inkscape:label="Calque 1"
     inkscape:groupmode="layer"
     id="layer1"
     transform="translate(-167.05466,-379.59924)">
    <path
       style="fill:#e3dedb;fill-opacity:1;stroke:#000000;stroke-width:2;stroke-linecap:round;stroke-linejoin:round;stroke-miterlimit:4;stroke-dasharray:none;stroke-dashoffset:0;stroke-opacity:1"
       d="m 260.76714,384.42986 c -13.13226,0 -24.36476,8.75504 -28.93874,21.15325 -3.28364,-1.44879 -6.92847,-2.22341 -10.75425,-2.22341 -12.89656,0 -23.63069,9.13525 -25.97782,21.24589 -1.65257,-0.41046 -3.38524,-0.61761 -5.16763,-0.61761 -11.60557,0 -21.00571,9.25452 -21.00571,20.65917 0,11.40463 9.40014,20.65915 21.00571,20.65915 3.64942,0 7.09323,-0.92418 10.08387,-2.53221 5.16209,5.17569 13.54997,8.55395 23.01689,8.55395 7.62527,0 14.53429,-2.1895 19.637,-5.74381 4.38513,4.59567 10.52222,7.44224 17.31853,7.44224 8.83023,0 16.54937,-4.81872 20.75434,-12.01257 2.8951,1.62824 6.16573,2.56308 9.60899,2.56308 12.03541,0 21.78784,-11.17098 21.78784,-24.95156 0,-13.27227 -9.05524,-24.10728 -20.475,-24.88982 -1.93417,-16.53022 -15.03339,-29.30574 -30.89402,-29.30574 z"
       id="path4074"
       inkscape:connector-curvature="0" />
    <path
       style="opacity:0.93;fill:#e3dedb;stroke-width:0.252538"
       d="m 89.438844,92.055371 c -4.480615,-0.815256 -8.600747,-2.8334 -11.853282,-5.806031 -1.541728,-1.409054 -2.167338,-1.549592 -3.33935,-0.750154 -1.166286,0.795535 -4.113007,2.259723 -5.934646,2.948855 -5.172382,1.956721 -12.564969,2.61263 -18.309015,1.624469 -5.682232,-0.977527 -10.531461,-3.032443 -14.309821,-6.063946 -1.189215,-0.954147 -2.274848,-1.804428 -2.412522,-1.889516 -0.137674,-0.08509 -1.14868,0.224179 -2.246678,0.687255 -2.822237,1.19027 -5.184474,1.667704 -8.251419,1.667704 -3.289584,0 -5.812249,-0.604829 -8.892513,-2.132046 C 9.0764166,79.955549 5.6180669,75.966649 3.9458004,70.872672 1.0094524,61.928109 5.2494156,52.060608 13.889598,47.730854 c 1.250063,-0.62643 2.954696,-1.319309 3.788072,-1.539732 2.166887,-0.57313 6.112811,-0.737949 8.645665,-0.361122 2.565424,0.381671 2.581506,0.370943 3.209359,-2.140902 0.672102,-2.688872 2.881334,-7.01082 4.803512,-9.397169 3.886317,-4.824791 10.002531,-8.290389 16.136975,-9.143612 4.075365,-0.566831 7.672483,-0.217814 11.761704,1.141203 1.449738,0.481807 2.776253,0.822149 2.947812,0.756315 0.171559,-0.06583 0.987467,-1.518749 1.81313,-3.228702 3.164513,-6.553724 7.662745,-11.369839 13.539103,-14.4958852 8.051875,-4.2833575 17.04969,-4.4637571 25.27855,-0.5068165 7.50466,3.6087027 13.37878,10.4021037 16.1217,18.6446997 0.58414,1.755363 1.06562,3.80779 1.54445,6.583656 0.0911,0.528159 0.30144,0.999486 0.46739,1.04739 0.16596,0.0479 1.30954,0.273425 2.54129,0.501159 10.84356,2.004822 18.3346,13.162621 17.30668,25.77806 -0.51333,6.29994 -3.42803,12.391031 -7.84229,16.388657 -5.94608,5.384878 -13.52589,6.50691 -20.89007,3.092342 -0.7466,-0.346176 -1.51189,-0.570147 -1.70066,-0.497712 -0.18876,0.07244 -0.87992,0.887313 -1.53591,1.81084 -3.3795,4.757768 -7.99541,8.009757 -13.336186,9.395573 -2.272427,0.589643 -7.087011,0.853632 -9.05103,0.496275 z"
       id="path11316"
       transform="translate(167.05466,379.59924)" />
    <path
       style="opacity:0.93;fill:url(#linearGradient13321);fill-opacity:1;stroke-width:1.20413"
       d="m 357.79625,635.93379 c -19.98611,-4.15525 -38.36425,-14.44147 -52.87242,-29.59259 -6.87699,-7.18176 -9.66757,-7.89807 -14.89542,-3.82343 -5.2023,4.05474 -18.34636,11.51751 -26.47192,15.02993 -23.07178,9.97315 -56.04695,13.31623 -81.66869,8.27971 -25.79052,-5.06971 -46.78624,-15.34421 -64.63939,-31.63201 l -10.53969,-9.61558 -5.21611,2.36291 c -2.868867,1.2996 -7.243757,3.27932 -9.721977,4.39937 -14.23309,6.43282 -36.31662,7.87427 -51.9188,3.3889 -11.58586,-3.33076 -27.38216,-12.34552 -36.1732902,-20.64368 -13.54042,-12.78113 -25.0373198,-33.86784 -29.2310698,-53.61334 -2.48742,-11.7116 -2.44017,-33.04085 0.0993,-44.81748 2.66254,-12.34737 10.74074,-30.65822 17.4839198,-39.63081 21.5750102,-28.70804 51.2635602,-41.30157 84.1761002,-35.7065 11.53959,1.9617 11.66174,1.86879 14.33356,-10.90202 2.77717,-13.27439 12.756477,-35.54019 21.466587,-47.89615 17.33519,-24.59133 44.61701,-42.25503 71.98014,-46.6038 18.17847,-2.88907 34.22367,-1.11017 52.46394,5.81656 6.46666,2.45571 12.39136,4.18702 13.16599,3.84736 0.77464,-0.33966 4.14552,-7.19719 7.49085,-15.23896 8.48981,-20.40854 16.20641,-32.99317 29.42428,-47.98669 15.49552,-17.57714 31.07743,-28.94492 49.68133,-36.245 31.41739,-12.32804 63.87972,-10.21741 93.90417,6.10544 14.46943,7.86634 23.90943,15.41667 36.01515,28.80578 22.88006,25.30573 36.60418,55.54335 42.44815,93.52375 0.89301,5.8038 1.86175,10.82438 2.15272,11.15686 0.29083,0.33246 5.45612,1.72993 11.47817,3.10548 23.02547,5.25947 40.28445,17.55872 55.39977,39.47954 14.9278,21.64885 23.05951,50.44332 22.95665,81.28981 -0.1753,52.5691 -26.01807,98.62421 -64.29826,114.58765 -21.0258,8.76807 -42.12797,7.34059 -64.17698,-4.34132 -3.33026,-1.76441 -6.7439,-2.90596 -7.58592,-2.53677 -0.84198,0.36922 -3.92494,4.52252 -6.85104,9.22962 -15.0745,24.24972 -35.6641,40.82469 -59.48702,47.88801 -10.13633,3.00534 -31.61213,4.35085 -40.37278,2.52945 z"
       id="path11320" />
  </g>
</svg>
